<svg xmlns="http://www.w3.org/2000/svg" width="171.05" height="33.055" viewBox="0 0 171.05 33.055">
  <defs>
    <style>
      .cls-1 {
        fill: #030404;
      }
    </style>
  </defs>
  <g id="Group_1" data-name="Group 1" transform="translate(0 -35.032)">
    <path id="Path_23" data-name="Path 23" class="cls-1" d="M257.227,164.649c0-.194-.359-.547-.619-.687a.908.908,0,0,0,.212-.537.5.5,0,0,0-.272-.452,1.306,1.306,0,0,1-.752.847,3.365,3.365,0,0,1-1,.307.855.855,0,0,0-.092-.088,3.945,3.945,0,0,1,.361-.986c.2-.392.476-.76.825-.76a.477.477,0,0,0-.465-.273.891.891,0,0,0-.529.212c-.02-.1-.493-.62-.686-.62s-.545.36-.686.62a.9.9,0,0,0-.535-.212.5.5,0,0,0-.45.273,1.3,1.3,0,0,1,.844.753,3.378,3.378,0,0,1,.307,1.011.768.768,0,0,0-.091.094,3.965,3.965,0,0,1-.978-.361c-.392-.2-.758-.476-.758-.826a.478.478,0,0,0-.272.466.892.892,0,0,0,.212.531c-.1.02-.619.493-.619.688s.36.547.62.686a.9.9,0,0,0-.212.537.5.5,0,0,0,.272.451,1.309,1.309,0,0,1,.752-.847,3.383,3.383,0,0,1,1-.305.814.814,0,0,0,.095.092,4.154,4.154,0,0,1-.359.965c-.2.391-.475.76-.824.76a.478.478,0,0,0,.466.272.891.891,0,0,0,.529-.213c.019.1.493.621.686.621s.545-.36.685-.621a.9.9,0,0,0,.536.212.5.5,0,0,0,.45-.272,1.305,1.305,0,0,1-.845-.754,3.356,3.356,0,0,1-.3-.995.754.754,0,0,0,.088-.093,4.094,4.094,0,0,1,.973.361c.391.2.757.476.757.827a.479.479,0,0,0,.272-.466.893.893,0,0,0-.212-.53c.1-.02.619-.494.619-.688" transform="translate(-227.177 -99.581)"/>
    <path id="Path_52" data-name="Path 52" class="cls-1" d="M257.227,164.649c0-.194-.359-.547-.619-.687a.908.908,0,0,0,.212-.537.5.5,0,0,0-.272-.452,1.306,1.306,0,0,1-.752.847,3.365,3.365,0,0,1-1,.307.855.855,0,0,0-.092-.088,3.945,3.945,0,0,1,.361-.986c.2-.392.476-.76.825-.76a.477.477,0,0,0-.465-.273.891.891,0,0,0-.529.212c-.02-.1-.493-.62-.686-.62s-.545.36-.686.62a.9.9,0,0,0-.535-.212.5.5,0,0,0-.45.273,1.3,1.3,0,0,1,.844.753,3.378,3.378,0,0,1,.307,1.011.768.768,0,0,0-.091.094,3.965,3.965,0,0,1-.978-.361c-.392-.2-.758-.476-.758-.826a.478.478,0,0,0-.272.466.892.892,0,0,0,.212.531c-.1.02-.619.493-.619.688s.36.547.62.686a.9.9,0,0,0-.212.537.5.5,0,0,0,.272.451,1.309,1.309,0,0,1,.752-.847,3.383,3.383,0,0,1,1-.305.814.814,0,0,0,.095.092,4.154,4.154,0,0,1-.359.965c-.2.391-.475.76-.824.76a.478.478,0,0,0,.466.272.891.891,0,0,0,.529-.213c.019.1.493.621.686.621s.545-.36.685-.621a.9.9,0,0,0,.536.212.5.5,0,0,0,.45-.272,1.305,1.305,0,0,1-.845-.754,3.356,3.356,0,0,1-.3-.995.754.754,0,0,0,.088-.093,4.094,4.094,0,0,1,.973.361c.391.2.757.476.757.827a.479.479,0,0,0,.272-.466.893.893,0,0,0-.212-.53c.1-.02.619-.494.619-.688" transform="translate(-227.177 -126.581)"/>
    <path id="Path_24" data-name="Path 24" class="cls-1" d="M257.227,164.649c0-.194-.359-.547-.619-.687a.908.908,0,0,0,.212-.537.5.5,0,0,0-.272-.452,1.306,1.306,0,0,1-.752.847,3.365,3.365,0,0,1-1,.307.855.855,0,0,0-.092-.088,3.945,3.945,0,0,1,.361-.986c.2-.392.476-.76.825-.76a.477.477,0,0,0-.465-.273.891.891,0,0,0-.529.212c-.02-.1-.493-.62-.686-.62s-.545.36-.686.62a.9.9,0,0,0-.535-.212.5.5,0,0,0-.45.273,1.3,1.3,0,0,1,.844.753,3.378,3.378,0,0,1,.307,1.011.768.768,0,0,0-.091.094,3.965,3.965,0,0,1-.978-.361c-.392-.2-.758-.476-.758-.826a.478.478,0,0,0-.272.466.892.892,0,0,0,.212.531c-.1.02-.619.493-.619.688s.36.547.62.686a.9.9,0,0,0-.212.537.5.5,0,0,0,.272.451,1.309,1.309,0,0,1,.752-.847,3.383,3.383,0,0,1,1-.305.814.814,0,0,0,.095.092,4.154,4.154,0,0,1-.359.965c-.2.391-.475.76-.824.76a.478.478,0,0,0,.466.272.891.891,0,0,0,.529-.213c.019.1.493.621.686.621s.545-.36.685-.621a.9.9,0,0,0,.536.212.5.5,0,0,0,.45-.272,1.305,1.305,0,0,1-.845-.754,3.356,3.356,0,0,1-.3-.995.754.754,0,0,0,.088-.093,4.094,4.094,0,0,1,.973.361c.391.2.757.476.757.827a.479.479,0,0,0,.272-.466.893.893,0,0,0-.212-.53c.1-.02.619-.494.619-.688" transform="translate(-204.177 -99.581)"/>
    <path id="Path_49" data-name="Path 49" class="cls-1" d="M257.227,164.649c0-.194-.359-.547-.619-.687a.908.908,0,0,0,.212-.537.5.5,0,0,0-.272-.452,1.306,1.306,0,0,1-.752.847,3.365,3.365,0,0,1-1,.307.855.855,0,0,0-.092-.088,3.945,3.945,0,0,1,.361-.986c.2-.392.476-.76.825-.76a.477.477,0,0,0-.465-.273.891.891,0,0,0-.529.212c-.02-.1-.493-.62-.686-.62s-.545.36-.686.62a.9.9,0,0,0-.535-.212.5.5,0,0,0-.45.273,1.3,1.3,0,0,1,.844.753,3.378,3.378,0,0,1,.307,1.011.768.768,0,0,0-.091.094,3.965,3.965,0,0,1-.978-.361c-.392-.2-.758-.476-.758-.826a.478.478,0,0,0-.272.466.892.892,0,0,0,.212.531c-.1.02-.619.493-.619.688s.36.547.62.686a.9.9,0,0,0-.212.537.5.5,0,0,0,.272.451,1.309,1.309,0,0,1,.752-.847,3.383,3.383,0,0,1,1-.305.814.814,0,0,0,.095.092,4.154,4.154,0,0,1-.359.965c-.2.391-.475.76-.824.76a.478.478,0,0,0,.466.272.891.891,0,0,0,.529-.213c.019.1.493.621.686.621s.545-.36.685-.621a.9.9,0,0,0,.536.212.5.5,0,0,0,.45-.272,1.305,1.305,0,0,1-.845-.754,3.356,3.356,0,0,1-.3-.995.754.754,0,0,0,.088-.093,4.094,4.094,0,0,1,.973.361c.391.2.757.476.757.827a.479.479,0,0,0,.272-.466.893.893,0,0,0-.212-.53c.1-.02.619-.494.619-.688" transform="translate(-204.177 -126.581)"/>
    <path id="Path_25" data-name="Path 25" class="cls-1" d="M257.227,164.649c0-.194-.359-.547-.619-.687a.908.908,0,0,0,.212-.537.5.5,0,0,0-.272-.452,1.306,1.306,0,0,1-.752.847,3.365,3.365,0,0,1-1,.307.855.855,0,0,0-.092-.088,3.945,3.945,0,0,1,.361-.986c.2-.392.476-.76.825-.76a.477.477,0,0,0-.465-.273.891.891,0,0,0-.529.212c-.02-.1-.493-.62-.686-.62s-.545.36-.686.62a.9.9,0,0,0-.535-.212.5.5,0,0,0-.45.273,1.3,1.3,0,0,1,.844.753,3.378,3.378,0,0,1,.307,1.011.768.768,0,0,0-.091.094,3.965,3.965,0,0,1-.978-.361c-.392-.2-.758-.476-.758-.826a.478.478,0,0,0-.272.466.892.892,0,0,0,.212.531c-.1.02-.619.493-.619.688s.36.547.62.686a.9.9,0,0,0-.212.537.5.5,0,0,0,.272.451,1.309,1.309,0,0,1,.752-.847,3.383,3.383,0,0,1,1-.305.814.814,0,0,0,.095.092,4.154,4.154,0,0,1-.359.965c-.2.391-.475.76-.824.76a.478.478,0,0,0,.466.272.891.891,0,0,0,.529-.213c.019.1.493.621.686.621s.545-.36.685-.621a.9.9,0,0,0,.536.212.5.5,0,0,0,.45-.272,1.305,1.305,0,0,1-.845-.754,3.356,3.356,0,0,1-.3-.995.754.754,0,0,0,.088-.093,4.094,4.094,0,0,1,.973.361c.391.2.757.476.757.827a.479.479,0,0,0,.272-.466.893.893,0,0,0-.212-.53c.1-.02.619-.494.619-.688" transform="translate(-180.177 -99.581)"/>
    <path id="Path_46" data-name="Path 46" class="cls-1" d="M257.227,164.649c0-.194-.359-.547-.619-.687a.908.908,0,0,0,.212-.537.5.5,0,0,0-.272-.452,1.306,1.306,0,0,1-.752.847,3.365,3.365,0,0,1-1,.307.855.855,0,0,0-.092-.088,3.945,3.945,0,0,1,.361-.986c.2-.392.476-.76.825-.76a.477.477,0,0,0-.465-.273.891.891,0,0,0-.529.212c-.02-.1-.493-.62-.686-.62s-.545.36-.686.62a.9.9,0,0,0-.535-.212.5.5,0,0,0-.45.273,1.3,1.3,0,0,1,.844.753,3.378,3.378,0,0,1,.307,1.011.768.768,0,0,0-.091.094,3.965,3.965,0,0,1-.978-.361c-.392-.2-.758-.476-.758-.826a.478.478,0,0,0-.272.466.892.892,0,0,0,.212.531c-.1.02-.619.493-.619.688s.36.547.62.686a.9.9,0,0,0-.212.537.5.5,0,0,0,.272.451,1.309,1.309,0,0,1,.752-.847,3.383,3.383,0,0,1,1-.305.814.814,0,0,0,.095.092,4.154,4.154,0,0,1-.359.965c-.2.391-.475.76-.824.76a.478.478,0,0,0,.466.272.891.891,0,0,0,.529-.213c.019.1.493.621.686.621s.545-.36.685-.621a.9.9,0,0,0,.536.212.5.5,0,0,0,.45-.272,1.305,1.305,0,0,1-.845-.754,3.356,3.356,0,0,1-.3-.995.754.754,0,0,0,.088-.093,4.094,4.094,0,0,1,.973.361c.391.2.757.476.757.827a.479.479,0,0,0,.272-.466.893.893,0,0,0-.212-.53c.1-.02.619-.494.619-.688" transform="translate(-180.177 -126.581)"/>
    <path id="Path_26" data-name="Path 26" class="cls-1" d="M257.227,164.649c0-.194-.359-.547-.619-.687a.908.908,0,0,0,.212-.537.5.5,0,0,0-.272-.452,1.306,1.306,0,0,1-.752.847,3.365,3.365,0,0,1-1,.307.855.855,0,0,0-.092-.088,3.945,3.945,0,0,1,.361-.986c.2-.392.476-.76.825-.76a.477.477,0,0,0-.465-.273.891.891,0,0,0-.529.212c-.02-.1-.493-.62-.686-.62s-.545.36-.686.62a.9.9,0,0,0-.535-.212.5.5,0,0,0-.45.273,1.3,1.3,0,0,1,.844.753,3.378,3.378,0,0,1,.307,1.011.768.768,0,0,0-.091.094,3.965,3.965,0,0,1-.978-.361c-.392-.2-.758-.476-.758-.826a.478.478,0,0,0-.272.466.892.892,0,0,0,.212.531c-.1.02-.619.493-.619.688s.36.547.62.686a.9.9,0,0,0-.212.537.5.5,0,0,0,.272.451,1.309,1.309,0,0,1,.752-.847,3.383,3.383,0,0,1,1-.305.814.814,0,0,0,.095.092,4.154,4.154,0,0,1-.359.965c-.2.391-.475.76-.824.76a.478.478,0,0,0,.466.272.891.891,0,0,0,.529-.213c.019.1.493.621.686.621s.545-.36.685-.621a.9.9,0,0,0,.536.212.5.5,0,0,0,.45-.272,1.305,1.305,0,0,1-.845-.754,3.356,3.356,0,0,1-.3-.995.754.754,0,0,0,.088-.093,4.094,4.094,0,0,1,.973.361c.391.2.757.476.757.827a.479.479,0,0,0,.272-.466.893.893,0,0,0-.212-.53c.1-.02.619-.494.619-.688" transform="translate(-156.177 -99.581)"/>
    <path id="Path_43" data-name="Path 43" class="cls-1" d="M257.227,164.649c0-.194-.359-.547-.619-.687a.908.908,0,0,0,.212-.537.5.5,0,0,0-.272-.452,1.306,1.306,0,0,1-.752.847,3.365,3.365,0,0,1-1,.307.855.855,0,0,0-.092-.088,3.945,3.945,0,0,1,.361-.986c.2-.392.476-.76.825-.76a.477.477,0,0,0-.465-.273.891.891,0,0,0-.529.212c-.02-.1-.493-.62-.686-.62s-.545.36-.686.62a.9.9,0,0,0-.535-.212.5.5,0,0,0-.45.273,1.3,1.3,0,0,1,.844.753,3.378,3.378,0,0,1,.307,1.011.768.768,0,0,0-.091.094,3.965,3.965,0,0,1-.978-.361c-.392-.2-.758-.476-.758-.826a.478.478,0,0,0-.272.466.892.892,0,0,0,.212.531c-.1.02-.619.493-.619.688s.36.547.62.686a.9.9,0,0,0-.212.537.5.5,0,0,0,.272.451,1.309,1.309,0,0,1,.752-.847,3.383,3.383,0,0,1,1-.305.814.814,0,0,0,.095.092,4.154,4.154,0,0,1-.359.965c-.2.391-.475.76-.824.76a.478.478,0,0,0,.466.272.891.891,0,0,0,.529-.213c.019.1.493.621.686.621s.545-.36.685-.621a.9.9,0,0,0,.536.212.5.5,0,0,0,.45-.272,1.305,1.305,0,0,1-.845-.754,3.356,3.356,0,0,1-.3-.995.754.754,0,0,0,.088-.093,4.094,4.094,0,0,1,.973.361c.391.2.757.476.757.827a.479.479,0,0,0,.272-.466.893.893,0,0,0-.212-.53c.1-.02.619-.494.619-.688" transform="translate(-156.177 -126.581)"/>
    <path id="Path_27" data-name="Path 27" class="cls-1" d="M257.227,164.649c0-.194-.359-.547-.619-.687a.908.908,0,0,0,.212-.537.5.5,0,0,0-.272-.452,1.306,1.306,0,0,1-.752.847,3.365,3.365,0,0,1-1,.307.855.855,0,0,0-.092-.088,3.945,3.945,0,0,1,.361-.986c.2-.392.476-.76.825-.76a.477.477,0,0,0-.465-.273.891.891,0,0,0-.529.212c-.02-.1-.493-.62-.686-.62s-.545.36-.686.62a.9.9,0,0,0-.535-.212.5.5,0,0,0-.45.273,1.3,1.3,0,0,1,.844.753,3.378,3.378,0,0,1,.307,1.011.768.768,0,0,0-.091.094,3.965,3.965,0,0,1-.978-.361c-.392-.2-.758-.476-.758-.826a.478.478,0,0,0-.272.466.892.892,0,0,0,.212.531c-.1.02-.619.493-.619.688s.36.547.62.686a.9.9,0,0,0-.212.537.5.5,0,0,0,.272.451,1.309,1.309,0,0,1,.752-.847,3.383,3.383,0,0,1,1-.305.814.814,0,0,0,.095.092,4.154,4.154,0,0,1-.359.965c-.2.391-.475.76-.824.76a.478.478,0,0,0,.466.272.891.891,0,0,0,.529-.213c.019.1.493.621.686.621s.545-.36.685-.621a.9.9,0,0,0,.536.212.5.5,0,0,0,.45-.272,1.305,1.305,0,0,1-.845-.754,3.356,3.356,0,0,1-.3-.995.754.754,0,0,0,.088-.093,4.094,4.094,0,0,1,.973.361c.391.2.757.476.757.827a.479.479,0,0,0,.272-.466.893.893,0,0,0-.212-.53c.1-.02.619-.494.619-.688" transform="translate(-132.177 -99.581)"/>
    <path id="Path_40" data-name="Path 40" class="cls-1" d="M257.227,164.649c0-.194-.359-.547-.619-.687a.908.908,0,0,0,.212-.537.5.5,0,0,0-.272-.452,1.306,1.306,0,0,1-.752.847,3.365,3.365,0,0,1-1,.307.855.855,0,0,0-.092-.088,3.945,3.945,0,0,1,.361-.986c.2-.392.476-.76.825-.76a.477.477,0,0,0-.465-.273.891.891,0,0,0-.529.212c-.02-.1-.493-.62-.686-.62s-.545.36-.686.62a.9.9,0,0,0-.535-.212.5.5,0,0,0-.45.273,1.3,1.3,0,0,1,.844.753,3.378,3.378,0,0,1,.307,1.011.768.768,0,0,0-.091.094,3.965,3.965,0,0,1-.978-.361c-.392-.2-.758-.476-.758-.826a.478.478,0,0,0-.272.466.892.892,0,0,0,.212.531c-.1.02-.619.493-.619.688s.36.547.62.686a.9.9,0,0,0-.212.537.5.5,0,0,0,.272.451,1.309,1.309,0,0,1,.752-.847,3.383,3.383,0,0,1,1-.305.814.814,0,0,0,.095.092,4.154,4.154,0,0,1-.359.965c-.2.391-.475.76-.824.76a.478.478,0,0,0,.466.272.891.891,0,0,0,.529-.213c.019.1.493.621.686.621s.545-.36.685-.621a.9.9,0,0,0,.536.212.5.5,0,0,0,.45-.272,1.305,1.305,0,0,1-.845-.754,3.356,3.356,0,0,1-.3-.995.754.754,0,0,0,.088-.093,4.094,4.094,0,0,1,.973.361c.391.2.757.476.757.827a.479.479,0,0,0,.272-.466.893.893,0,0,0-.212-.53c.1-.02.619-.494.619-.688" transform="translate(-132.177 -126.581)"/>
    <path id="Path_28" data-name="Path 28" class="cls-1" d="M257.227,164.649c0-.194-.359-.547-.619-.687a.908.908,0,0,0,.212-.537.5.5,0,0,0-.272-.452,1.306,1.306,0,0,1-.752.847,3.365,3.365,0,0,1-1,.307.855.855,0,0,0-.092-.088,3.945,3.945,0,0,1,.361-.986c.2-.392.476-.76.825-.76a.477.477,0,0,0-.465-.273.891.891,0,0,0-.529.212c-.02-.1-.493-.62-.686-.62s-.545.36-.686.62a.9.9,0,0,0-.535-.212.5.5,0,0,0-.45.273,1.3,1.3,0,0,1,.844.753,3.378,3.378,0,0,1,.307,1.011.768.768,0,0,0-.091.094,3.965,3.965,0,0,1-.978-.361c-.392-.2-.758-.476-.758-.826a.478.478,0,0,0-.272.466.892.892,0,0,0,.212.531c-.1.02-.619.493-.619.688s.36.547.62.686a.9.9,0,0,0-.212.537.5.5,0,0,0,.272.451,1.309,1.309,0,0,1,.752-.847,3.383,3.383,0,0,1,1-.305.814.814,0,0,0,.095.092,4.154,4.154,0,0,1-.359.965c-.2.391-.475.76-.824.76a.478.478,0,0,0,.466.272.891.891,0,0,0,.529-.213c.019.1.493.621.686.621s.545-.36.685-.621a.9.9,0,0,0,.536.212.5.5,0,0,0,.45-.272,1.305,1.305,0,0,1-.845-.754,3.356,3.356,0,0,1-.3-.995.754.754,0,0,0,.088-.093,4.094,4.094,0,0,1,.973.361c.391.2.757.476.757.827a.479.479,0,0,0,.272-.466.893.893,0,0,0-.212-.53c.1-.02.619-.494.619-.688" transform="translate(-243.177 -99.581)"/>
    <path id="Path_54" data-name="Path 54" class="cls-1" d="M257.227,164.649c0-.194-.359-.547-.619-.687a.908.908,0,0,0,.212-.537.5.5,0,0,0-.272-.452,1.306,1.306,0,0,1-.752.847,3.365,3.365,0,0,1-1,.307.855.855,0,0,0-.092-.088,3.945,3.945,0,0,1,.361-.986c.2-.392.476-.76.825-.76a.477.477,0,0,0-.465-.273.891.891,0,0,0-.529.212c-.02-.1-.493-.62-.686-.62s-.545.36-.686.62a.9.9,0,0,0-.535-.212.5.5,0,0,0-.45.273,1.3,1.3,0,0,1,.844.753,3.378,3.378,0,0,1,.307,1.011.768.768,0,0,0-.091.094,3.965,3.965,0,0,1-.978-.361c-.392-.2-.758-.476-.758-.826a.478.478,0,0,0-.272.466.892.892,0,0,0,.212.531c-.1.02-.619.493-.619.688s.36.547.62.686a.9.9,0,0,0-.212.537.5.5,0,0,0,.272.451,1.309,1.309,0,0,1,.752-.847,3.383,3.383,0,0,1,1-.305.814.814,0,0,0,.095.092,4.154,4.154,0,0,1-.359.965c-.2.391-.475.76-.824.76a.478.478,0,0,0,.466.272.891.891,0,0,0,.529-.213c.019.1.493.621.686.621s.545-.36.685-.621a.9.9,0,0,0,.536.212.5.5,0,0,0,.45-.272,1.305,1.305,0,0,1-.845-.754,3.356,3.356,0,0,1-.3-.995.754.754,0,0,0,.088-.093,4.094,4.094,0,0,1,.973.361c.391.2.757.476.757.827a.479.479,0,0,0,.272-.466.893.893,0,0,0-.212-.53c.1-.02.619-.494.619-.688" transform="translate(-243.177 -126.581)"/>
    <path id="Path_29" data-name="Path 29" class="cls-1" d="M257.227,164.649c0-.194-.359-.547-.619-.687a.908.908,0,0,0,.212-.537.5.5,0,0,0-.272-.452,1.306,1.306,0,0,1-.752.847,3.365,3.365,0,0,1-1,.307.855.855,0,0,0-.092-.088,3.945,3.945,0,0,1,.361-.986c.2-.392.476-.76.825-.76a.477.477,0,0,0-.465-.273.891.891,0,0,0-.529.212c-.02-.1-.493-.62-.686-.62s-.545.36-.686.62a.9.9,0,0,0-.535-.212.5.5,0,0,0-.45.273,1.3,1.3,0,0,1,.844.753,3.378,3.378,0,0,1,.307,1.011.768.768,0,0,0-.091.094,3.965,3.965,0,0,1-.978-.361c-.392-.2-.758-.476-.758-.826a.478.478,0,0,0-.272.466.892.892,0,0,0,.212.531c-.1.02-.619.493-.619.688s.36.547.62.686a.9.9,0,0,0-.212.537.5.5,0,0,0,.272.451,1.309,1.309,0,0,1,.752-.847,3.383,3.383,0,0,1,1-.305.814.814,0,0,0,.095.092,4.154,4.154,0,0,1-.359.965c-.2.391-.475.76-.824.76a.478.478,0,0,0,.466.272.891.891,0,0,0,.529-.213c.019.1.493.621.686.621s.545-.36.685-.621a.9.9,0,0,0,.536.212.5.5,0,0,0,.45-.272,1.305,1.305,0,0,1-.845-.754,3.356,3.356,0,0,1-.3-.995.754.754,0,0,0,.088-.093,4.094,4.094,0,0,1,.973.361c.391.2.757.476.757.827a.479.479,0,0,0,.272-.466.893.893,0,0,0-.212-.53c.1-.02.619-.494.619-.688" transform="translate(-219.177 -99.581)"/>
    <path id="Path_51" data-name="Path 51" class="cls-1" d="M257.227,164.649c0-.194-.359-.547-.619-.687a.908.908,0,0,0,.212-.537.5.5,0,0,0-.272-.452,1.306,1.306,0,0,1-.752.847,3.365,3.365,0,0,1-1,.307.855.855,0,0,0-.092-.088,3.945,3.945,0,0,1,.361-.986c.2-.392.476-.76.825-.76a.477.477,0,0,0-.465-.273.891.891,0,0,0-.529.212c-.02-.1-.493-.62-.686-.62s-.545.36-.686.62a.9.9,0,0,0-.535-.212.5.5,0,0,0-.45.273,1.3,1.3,0,0,1,.844.753,3.378,3.378,0,0,1,.307,1.011.768.768,0,0,0-.091.094,3.965,3.965,0,0,1-.978-.361c-.392-.2-.758-.476-.758-.826a.478.478,0,0,0-.272.466.892.892,0,0,0,.212.531c-.1.02-.619.493-.619.688s.36.547.62.686a.9.9,0,0,0-.212.537.5.5,0,0,0,.272.451,1.309,1.309,0,0,1,.752-.847,3.383,3.383,0,0,1,1-.305.814.814,0,0,0,.095.092,4.154,4.154,0,0,1-.359.965c-.2.391-.475.76-.824.76a.478.478,0,0,0,.466.272.891.891,0,0,0,.529-.213c.019.1.493.621.686.621s.545-.36.685-.621a.9.9,0,0,0,.536.212.5.5,0,0,0,.45-.272,1.305,1.305,0,0,1-.845-.754,3.356,3.356,0,0,1-.3-.995.754.754,0,0,0,.088-.093,4.094,4.094,0,0,1,.973.361c.391.2.757.476.757.827a.479.479,0,0,0,.272-.466.893.893,0,0,0-.212-.53c.1-.02.619-.494.619-.688" transform="translate(-219.177 -126.581)"/>
    <path id="Path_30" data-name="Path 30" class="cls-1" d="M257.227,164.649c0-.194-.359-.547-.619-.687a.908.908,0,0,0,.212-.537.5.5,0,0,0-.272-.452,1.306,1.306,0,0,1-.752.847,3.365,3.365,0,0,1-1,.307.855.855,0,0,0-.092-.088,3.945,3.945,0,0,1,.361-.986c.2-.392.476-.76.825-.76a.477.477,0,0,0-.465-.273.891.891,0,0,0-.529.212c-.02-.1-.493-.62-.686-.62s-.545.36-.686.62a.9.9,0,0,0-.535-.212.5.5,0,0,0-.45.273,1.3,1.3,0,0,1,.844.753,3.378,3.378,0,0,1,.307,1.011.768.768,0,0,0-.091.094,3.965,3.965,0,0,1-.978-.361c-.392-.2-.758-.476-.758-.826a.478.478,0,0,0-.272.466.892.892,0,0,0,.212.531c-.1.02-.619.493-.619.688s.36.547.62.686a.9.9,0,0,0-.212.537.5.5,0,0,0,.272.451,1.309,1.309,0,0,1,.752-.847,3.383,3.383,0,0,1,1-.305.814.814,0,0,0,.095.092,4.154,4.154,0,0,1-.359.965c-.2.391-.475.76-.824.76a.478.478,0,0,0,.466.272.891.891,0,0,0,.529-.213c.019.1.493.621.686.621s.545-.36.685-.621a.9.9,0,0,0,.536.212.5.5,0,0,0,.45-.272,1.305,1.305,0,0,1-.845-.754,3.356,3.356,0,0,1-.3-.995.754.754,0,0,0,.088-.093,4.094,4.094,0,0,1,.973.361c.391.2.757.476.757.827a.479.479,0,0,0,.272-.466.893.893,0,0,0-.212-.53c.1-.02.619-.494.619-.688" transform="translate(-196.177 -99.581)"/>
    <path id="Path_48" data-name="Path 48" class="cls-1" d="M257.227,164.649c0-.194-.359-.547-.619-.687a.908.908,0,0,0,.212-.537.5.5,0,0,0-.272-.452,1.306,1.306,0,0,1-.752.847,3.365,3.365,0,0,1-1,.307.855.855,0,0,0-.092-.088,3.945,3.945,0,0,1,.361-.986c.2-.392.476-.76.825-.76a.477.477,0,0,0-.465-.273.891.891,0,0,0-.529.212c-.02-.1-.493-.62-.686-.62s-.545.36-.686.62a.9.9,0,0,0-.535-.212.5.5,0,0,0-.45.273,1.3,1.3,0,0,1,.844.753,3.378,3.378,0,0,1,.307,1.011.768.768,0,0,0-.091.094,3.965,3.965,0,0,1-.978-.361c-.392-.2-.758-.476-.758-.826a.478.478,0,0,0-.272.466.892.892,0,0,0,.212.531c-.1.02-.619.493-.619.688s.36.547.62.686a.9.9,0,0,0-.212.537.5.5,0,0,0,.272.451,1.309,1.309,0,0,1,.752-.847,3.383,3.383,0,0,1,1-.305.814.814,0,0,0,.095.092,4.154,4.154,0,0,1-.359.965c-.2.391-.475.76-.824.76a.478.478,0,0,0,.466.272.891.891,0,0,0,.529-.213c.019.1.493.621.686.621s.545-.36.685-.621a.9.9,0,0,0,.536.212.5.5,0,0,0,.45-.272,1.305,1.305,0,0,1-.845-.754,3.356,3.356,0,0,1-.3-.995.754.754,0,0,0,.088-.093,4.094,4.094,0,0,1,.973.361c.391.2.757.476.757.827a.479.479,0,0,0,.272-.466.893.893,0,0,0-.212-.53c.1-.02.619-.494.619-.688" transform="translate(-196.177 -126.581)"/>
    <path id="Path_31" data-name="Path 31" class="cls-1" d="M257.227,164.649c0-.194-.359-.547-.619-.687a.908.908,0,0,0,.212-.537.5.5,0,0,0-.272-.452,1.306,1.306,0,0,1-.752.847,3.365,3.365,0,0,1-1,.307.855.855,0,0,0-.092-.088,3.945,3.945,0,0,1,.361-.986c.2-.392.476-.76.825-.76a.477.477,0,0,0-.465-.273.891.891,0,0,0-.529.212c-.02-.1-.493-.62-.686-.62s-.545.36-.686.62a.9.9,0,0,0-.535-.212.5.5,0,0,0-.45.273,1.3,1.3,0,0,1,.844.753,3.378,3.378,0,0,1,.307,1.011.768.768,0,0,0-.091.094,3.965,3.965,0,0,1-.978-.361c-.392-.2-.758-.476-.758-.826a.478.478,0,0,0-.272.466.892.892,0,0,0,.212.531c-.1.02-.619.493-.619.688s.36.547.62.686a.9.9,0,0,0-.212.537.5.5,0,0,0,.272.451,1.309,1.309,0,0,1,.752-.847,3.383,3.383,0,0,1,1-.305.814.814,0,0,0,.095.092,4.154,4.154,0,0,1-.359.965c-.2.391-.475.76-.824.76a.478.478,0,0,0,.466.272.891.891,0,0,0,.529-.213c.019.1.493.621.686.621s.545-.36.685-.621a.9.9,0,0,0,.536.212.5.5,0,0,0,.45-.272,1.305,1.305,0,0,1-.845-.754,3.356,3.356,0,0,1-.3-.995.754.754,0,0,0,.088-.093,4.094,4.094,0,0,1,.973.361c.391.2.757.476.757.827a.479.479,0,0,0,.272-.466.893.893,0,0,0-.212-.53c.1-.02.619-.494.619-.688" transform="translate(-172.177 -99.581)"/>
    <path id="Path_45" data-name="Path 45" class="cls-1" d="M257.227,164.649c0-.194-.359-.547-.619-.687a.908.908,0,0,0,.212-.537.5.5,0,0,0-.272-.452,1.306,1.306,0,0,1-.752.847,3.365,3.365,0,0,1-1,.307.855.855,0,0,0-.092-.088,3.945,3.945,0,0,1,.361-.986c.2-.392.476-.76.825-.76a.477.477,0,0,0-.465-.273.891.891,0,0,0-.529.212c-.02-.1-.493-.62-.686-.62s-.545.36-.686.62a.9.9,0,0,0-.535-.212.5.5,0,0,0-.45.273,1.3,1.3,0,0,1,.844.753,3.378,3.378,0,0,1,.307,1.011.768.768,0,0,0-.091.094,3.965,3.965,0,0,1-.978-.361c-.392-.2-.758-.476-.758-.826a.478.478,0,0,0-.272.466.892.892,0,0,0,.212.531c-.1.02-.619.493-.619.688s.36.547.62.686a.9.9,0,0,0-.212.537.5.5,0,0,0,.272.451,1.309,1.309,0,0,1,.752-.847,3.383,3.383,0,0,1,1-.305.814.814,0,0,0,.095.092,4.154,4.154,0,0,1-.359.965c-.2.391-.475.76-.824.76a.478.478,0,0,0,.466.272.891.891,0,0,0,.529-.213c.019.1.493.621.686.621s.545-.36.685-.621a.9.9,0,0,0,.536.212.5.5,0,0,0,.45-.272,1.305,1.305,0,0,1-.845-.754,3.356,3.356,0,0,1-.3-.995.754.754,0,0,0,.088-.093,4.094,4.094,0,0,1,.973.361c.391.2.757.476.757.827a.479.479,0,0,0,.272-.466.893.893,0,0,0-.212-.53c.1-.02.619-.494.619-.688" transform="translate(-172.177 -126.581)"/>
    <path id="Path_32" data-name="Path 32" class="cls-1" d="M257.227,164.649c0-.194-.359-.547-.619-.687a.908.908,0,0,0,.212-.537.5.5,0,0,0-.272-.452,1.306,1.306,0,0,1-.752.847,3.365,3.365,0,0,1-1,.307.855.855,0,0,0-.092-.088,3.945,3.945,0,0,1,.361-.986c.2-.392.476-.76.825-.76a.477.477,0,0,0-.465-.273.891.891,0,0,0-.529.212c-.02-.1-.493-.62-.686-.62s-.545.36-.686.62a.9.9,0,0,0-.535-.212.5.5,0,0,0-.45.273,1.3,1.3,0,0,1,.844.753,3.378,3.378,0,0,1,.307,1.011.768.768,0,0,0-.091.094,3.965,3.965,0,0,1-.978-.361c-.392-.2-.758-.476-.758-.826a.478.478,0,0,0-.272.466.892.892,0,0,0,.212.531c-.1.02-.619.493-.619.688s.36.547.62.686a.9.9,0,0,0-.212.537.5.5,0,0,0,.272.451,1.309,1.309,0,0,1,.752-.847,3.383,3.383,0,0,1,1-.305.814.814,0,0,0,.095.092,4.154,4.154,0,0,1-.359.965c-.2.391-.475.76-.824.76a.478.478,0,0,0,.466.272.891.891,0,0,0,.529-.213c.019.1.493.621.686.621s.545-.36.685-.621a.9.9,0,0,0,.536.212.5.5,0,0,0,.45-.272,1.305,1.305,0,0,1-.845-.754,3.356,3.356,0,0,1-.3-.995.754.754,0,0,0,.088-.093,4.094,4.094,0,0,1,.973.361c.391.2.757.476.757.827a.479.479,0,0,0,.272-.466.893.893,0,0,0-.212-.53c.1-.02.619-.494.619-.688" transform="translate(-148.177 -99.581)"/>
    <path id="Path_42" data-name="Path 42" class="cls-1" d="M257.227,164.649c0-.194-.359-.547-.619-.687a.908.908,0,0,0,.212-.537.5.5,0,0,0-.272-.452,1.306,1.306,0,0,1-.752.847,3.365,3.365,0,0,1-1,.307.855.855,0,0,0-.092-.088,3.945,3.945,0,0,1,.361-.986c.2-.392.476-.76.825-.76a.477.477,0,0,0-.465-.273.891.891,0,0,0-.529.212c-.02-.1-.493-.62-.686-.62s-.545.36-.686.62a.9.9,0,0,0-.535-.212.5.5,0,0,0-.45.273,1.3,1.3,0,0,1,.844.753,3.378,3.378,0,0,1,.307,1.011.768.768,0,0,0-.091.094,3.965,3.965,0,0,1-.978-.361c-.392-.2-.758-.476-.758-.826a.478.478,0,0,0-.272.466.892.892,0,0,0,.212.531c-.1.02-.619.493-.619.688s.36.547.62.686a.9.9,0,0,0-.212.537.5.5,0,0,0,.272.451,1.309,1.309,0,0,1,.752-.847,3.383,3.383,0,0,1,1-.305.814.814,0,0,0,.095.092,4.154,4.154,0,0,1-.359.965c-.2.391-.475.76-.824.76a.478.478,0,0,0,.466.272.891.891,0,0,0,.529-.213c.019.1.493.621.686.621s.545-.36.685-.621a.9.9,0,0,0,.536.212.5.5,0,0,0,.45-.272,1.305,1.305,0,0,1-.845-.754,3.356,3.356,0,0,1-.3-.995.754.754,0,0,0,.088-.093,4.094,4.094,0,0,1,.973.361c.391.2.757.476.757.827a.479.479,0,0,0,.272-.466.893.893,0,0,0-.212-.53c.1-.02.619-.494.619-.688" transform="translate(-148.177 -126.581)"/>
    <path id="Path_33" data-name="Path 33" class="cls-1" d="M257.227,164.649c0-.194-.359-.547-.619-.687a.908.908,0,0,0,.212-.537.5.5,0,0,0-.272-.452,1.306,1.306,0,0,1-.752.847,3.365,3.365,0,0,1-1,.307.855.855,0,0,0-.092-.088,3.945,3.945,0,0,1,.361-.986c.2-.392.476-.76.825-.76a.477.477,0,0,0-.465-.273.891.891,0,0,0-.529.212c-.02-.1-.493-.62-.686-.62s-.545.36-.686.62a.9.9,0,0,0-.535-.212.5.5,0,0,0-.45.273,1.3,1.3,0,0,1,.844.753,3.378,3.378,0,0,1,.307,1.011.768.768,0,0,0-.091.094,3.965,3.965,0,0,1-.978-.361c-.392-.2-.758-.476-.758-.826a.478.478,0,0,0-.272.466.892.892,0,0,0,.212.531c-.1.02-.619.493-.619.688s.36.547.62.686a.9.9,0,0,0-.212.537.5.5,0,0,0,.272.451,1.309,1.309,0,0,1,.752-.847,3.383,3.383,0,0,1,1-.305.814.814,0,0,0,.095.092,4.154,4.154,0,0,1-.359.965c-.2.391-.475.76-.824.76a.478.478,0,0,0,.466.272.891.891,0,0,0,.529-.213c.019.1.493.621.686.621s.545-.36.685-.621a.9.9,0,0,0,.536.212.5.5,0,0,0,.45-.272,1.305,1.305,0,0,1-.845-.754,3.356,3.356,0,0,1-.3-.995.754.754,0,0,0,.088-.093,4.094,4.094,0,0,1,.973.361c.391.2.757.476.757.827a.479.479,0,0,0,.272-.466.893.893,0,0,0-.212-.53c.1-.02.619-.494.619-.688" transform="translate(-94.177 -99.581)"/>
    <path id="Path_39" data-name="Path 39" class="cls-1" d="M257.227,164.649c0-.194-.359-.547-.619-.687a.908.908,0,0,0,.212-.537.5.5,0,0,0-.272-.452,1.306,1.306,0,0,1-.752.847,3.365,3.365,0,0,1-1,.307.855.855,0,0,0-.092-.088,3.945,3.945,0,0,1,.361-.986c.2-.392.476-.76.825-.76a.477.477,0,0,0-.465-.273.891.891,0,0,0-.529.212c-.02-.1-.493-.62-.686-.62s-.545.36-.686.62a.9.9,0,0,0-.535-.212.5.5,0,0,0-.45.273,1.3,1.3,0,0,1,.844.753,3.378,3.378,0,0,1,.307,1.011.768.768,0,0,0-.091.094,3.965,3.965,0,0,1-.978-.361c-.392-.2-.758-.476-.758-.826a.478.478,0,0,0-.272.466.892.892,0,0,0,.212.531c-.1.02-.619.493-.619.688s.36.547.62.686a.9.9,0,0,0-.212.537.5.5,0,0,0,.272.451,1.309,1.309,0,0,1,.752-.847,3.383,3.383,0,0,1,1-.305.814.814,0,0,0,.095.092,4.154,4.154,0,0,1-.359.965c-.2.391-.475.76-.824.76a.478.478,0,0,0,.466.272.891.891,0,0,0,.529-.213c.019.1.493.621.686.621s.545-.36.685-.621a.9.9,0,0,0,.536.212.5.5,0,0,0,.45-.272,1.305,1.305,0,0,1-.845-.754,3.356,3.356,0,0,1-.3-.995.754.754,0,0,0,.088-.093,4.094,4.094,0,0,1,.973.361c.391.2.757.476.757.827a.479.479,0,0,0,.272-.466.893.893,0,0,0-.212-.53c.1-.02.619-.494.619-.688" transform="translate(-94.177 -126.581)"/>
    <path id="Path_34" data-name="Path 34" class="cls-1" d="M257.227,164.649c0-.194-.359-.547-.619-.687a.908.908,0,0,0,.212-.537.5.5,0,0,0-.272-.452,1.306,1.306,0,0,1-.752.847,3.365,3.365,0,0,1-1,.307.855.855,0,0,0-.092-.088,3.945,3.945,0,0,1,.361-.986c.2-.392.476-.76.825-.76a.477.477,0,0,0-.465-.273.891.891,0,0,0-.529.212c-.02-.1-.493-.62-.686-.62s-.545.36-.686.62a.9.9,0,0,0-.535-.212.5.5,0,0,0-.45.273,1.3,1.3,0,0,1,.844.753,3.378,3.378,0,0,1,.307,1.011.768.768,0,0,0-.091.094,3.965,3.965,0,0,1-.978-.361c-.392-.2-.758-.476-.758-.826a.478.478,0,0,0-.272.466.892.892,0,0,0,.212.531c-.1.02-.619.493-.619.688s.36.547.62.686a.9.9,0,0,0-.212.537.5.5,0,0,0,.272.451,1.309,1.309,0,0,1,.752-.847,3.383,3.383,0,0,1,1-.305.814.814,0,0,0,.095.092,4.154,4.154,0,0,1-.359.965c-.2.391-.475.76-.824.76a.478.478,0,0,0,.466.272.891.891,0,0,0,.529-.213c.019.1.493.621.686.621s.545-.36.685-.621a.9.9,0,0,0,.536.212.5.5,0,0,0,.45-.272,1.305,1.305,0,0,1-.845-.754,3.356,3.356,0,0,1-.3-.995.754.754,0,0,0,.088-.093,4.094,4.094,0,0,1,.973.361c.391.2.757.476.757.827a.479.479,0,0,0,.272-.466.893.893,0,0,0-.212-.53c.1-.02.619-.494.619-.688" transform="translate(-235.177 -99.581)"/>
    <path id="Path_53" data-name="Path 53" class="cls-1" d="M257.227,164.649c0-.194-.359-.547-.619-.687a.908.908,0,0,0,.212-.537.5.5,0,0,0-.272-.452,1.306,1.306,0,0,1-.752.847,3.365,3.365,0,0,1-1,.307.855.855,0,0,0-.092-.088,3.945,3.945,0,0,1,.361-.986c.2-.392.476-.76.825-.76a.477.477,0,0,0-.465-.273.891.891,0,0,0-.529.212c-.02-.1-.493-.62-.686-.62s-.545.36-.686.62a.9.9,0,0,0-.535-.212.5.5,0,0,0-.45.273,1.3,1.3,0,0,1,.844.753,3.378,3.378,0,0,1,.307,1.011.768.768,0,0,0-.091.094,3.965,3.965,0,0,1-.978-.361c-.392-.2-.758-.476-.758-.826a.478.478,0,0,0-.272.466.892.892,0,0,0,.212.531c-.1.02-.619.493-.619.688s.36.547.62.686a.9.9,0,0,0-.212.537.5.5,0,0,0,.272.451,1.309,1.309,0,0,1,.752-.847,3.383,3.383,0,0,1,1-.305.814.814,0,0,0,.095.092,4.154,4.154,0,0,1-.359.965c-.2.391-.475.76-.824.76a.478.478,0,0,0,.466.272.891.891,0,0,0,.529-.213c.019.1.493.621.686.621s.545-.36.685-.621a.9.9,0,0,0,.536.212.5.5,0,0,0,.45-.272,1.305,1.305,0,0,1-.845-.754,3.356,3.356,0,0,1-.3-.995.754.754,0,0,0,.088-.093,4.094,4.094,0,0,1,.973.361c.391.2.757.476.757.827a.479.479,0,0,0,.272-.466.893.893,0,0,0-.212-.53c.1-.02.619-.494.619-.688" transform="translate(-235.177 -126.581)"/>
    <path id="Path_35" data-name="Path 35" class="cls-1" d="M257.227,164.649c0-.194-.359-.547-.619-.687a.908.908,0,0,0,.212-.537.5.5,0,0,0-.272-.452,1.306,1.306,0,0,1-.752.847,3.365,3.365,0,0,1-1,.307.855.855,0,0,0-.092-.088,3.945,3.945,0,0,1,.361-.986c.2-.392.476-.76.825-.76a.477.477,0,0,0-.465-.273.891.891,0,0,0-.529.212c-.02-.1-.493-.62-.686-.62s-.545.36-.686.62a.9.9,0,0,0-.535-.212.5.5,0,0,0-.45.273,1.3,1.3,0,0,1,.844.753,3.378,3.378,0,0,1,.307,1.011.768.768,0,0,0-.091.094,3.965,3.965,0,0,1-.978-.361c-.392-.2-.758-.476-.758-.826a.478.478,0,0,0-.272.466.892.892,0,0,0,.212.531c-.1.02-.619.493-.619.688s.36.547.62.686a.9.9,0,0,0-.212.537.5.5,0,0,0,.272.451,1.309,1.309,0,0,1,.752-.847,3.383,3.383,0,0,1,1-.305.814.814,0,0,0,.095.092,4.154,4.154,0,0,1-.359.965c-.2.391-.475.76-.824.76a.478.478,0,0,0,.466.272.891.891,0,0,0,.529-.213c.019.1.493.621.686.621s.545-.36.685-.621a.9.9,0,0,0,.536.212.5.5,0,0,0,.45-.272,1.305,1.305,0,0,1-.845-.754,3.356,3.356,0,0,1-.3-.995.754.754,0,0,0,.088-.093,4.094,4.094,0,0,1,.973.361c.391.2.757.476.757.827a.479.479,0,0,0,.272-.466.893.893,0,0,0-.212-.53c.1-.02.619-.494.619-.688" transform="translate(-211.177 -99.581)"/>
    <path id="Path_50" data-name="Path 50" class="cls-1" d="M257.227,164.649c0-.194-.359-.547-.619-.687a.908.908,0,0,0,.212-.537.5.5,0,0,0-.272-.452,1.306,1.306,0,0,1-.752.847,3.365,3.365,0,0,1-1,.307.855.855,0,0,0-.092-.088,3.945,3.945,0,0,1,.361-.986c.2-.392.476-.76.825-.76a.477.477,0,0,0-.465-.273.891.891,0,0,0-.529.212c-.02-.1-.493-.62-.686-.62s-.545.36-.686.62a.9.9,0,0,0-.535-.212.5.5,0,0,0-.45.273,1.3,1.3,0,0,1,.844.753,3.378,3.378,0,0,1,.307,1.011.768.768,0,0,0-.091.094,3.965,3.965,0,0,1-.978-.361c-.392-.2-.758-.476-.758-.826a.478.478,0,0,0-.272.466.892.892,0,0,0,.212.531c-.1.02-.619.493-.619.688s.36.547.62.686a.9.9,0,0,0-.212.537.5.5,0,0,0,.272.451,1.309,1.309,0,0,1,.752-.847,3.383,3.383,0,0,1,1-.305.814.814,0,0,0,.095.092,4.154,4.154,0,0,1-.359.965c-.2.391-.475.76-.824.76a.478.478,0,0,0,.466.272.891.891,0,0,0,.529-.213c.019.1.493.621.686.621s.545-.36.685-.621a.9.9,0,0,0,.536.212.5.5,0,0,0,.45-.272,1.305,1.305,0,0,1-.845-.754,3.356,3.356,0,0,1-.3-.995.754.754,0,0,0,.088-.093,4.094,4.094,0,0,1,.973.361c.391.2.757.476.757.827a.479.479,0,0,0,.272-.466.893.893,0,0,0-.212-.53c.1-.02.619-.494.619-.688" transform="translate(-211.177 -126.581)"/>
    <path id="Path_36" data-name="Path 36" class="cls-1" d="M257.227,164.649c0-.194-.359-.547-.619-.687a.908.908,0,0,0,.212-.537.5.5,0,0,0-.272-.452,1.306,1.306,0,0,1-.752.847,3.365,3.365,0,0,1-1,.307.855.855,0,0,0-.092-.088,3.945,3.945,0,0,1,.361-.986c.2-.392.476-.76.825-.76a.477.477,0,0,0-.465-.273.891.891,0,0,0-.529.212c-.02-.1-.493-.62-.686-.62s-.545.36-.686.62a.9.9,0,0,0-.535-.212.5.5,0,0,0-.45.273,1.3,1.3,0,0,1,.844.753,3.378,3.378,0,0,1,.307,1.011.768.768,0,0,0-.091.094,3.965,3.965,0,0,1-.978-.361c-.392-.2-.758-.476-.758-.826a.478.478,0,0,0-.272.466.892.892,0,0,0,.212.531c-.1.02-.619.493-.619.688s.36.547.62.686a.9.9,0,0,0-.212.537.5.5,0,0,0,.272.451,1.309,1.309,0,0,1,.752-.847,3.383,3.383,0,0,1,1-.305.814.814,0,0,0,.095.092,4.154,4.154,0,0,1-.359.965c-.2.391-.475.76-.824.76a.478.478,0,0,0,.466.272.891.891,0,0,0,.529-.213c.019.1.493.621.686.621s.545-.36.685-.621a.9.9,0,0,0,.536.212.5.5,0,0,0,.45-.272,1.305,1.305,0,0,1-.845-.754,3.356,3.356,0,0,1-.3-.995.754.754,0,0,0,.088-.093,4.094,4.094,0,0,1,.973.361c.391.2.757.476.757.827a.479.479,0,0,0,.272-.466.893.893,0,0,0-.212-.53c.1-.02.619-.494.619-.688" transform="translate(-188.177 -99.581)"/>
    <path id="Path_47" data-name="Path 47" class="cls-1" d="M257.227,164.649c0-.194-.359-.547-.619-.687a.908.908,0,0,0,.212-.537.5.5,0,0,0-.272-.452,1.306,1.306,0,0,1-.752.847,3.365,3.365,0,0,1-1,.307.855.855,0,0,0-.092-.088,3.945,3.945,0,0,1,.361-.986c.2-.392.476-.76.825-.76a.477.477,0,0,0-.465-.273.891.891,0,0,0-.529.212c-.02-.1-.493-.62-.686-.62s-.545.36-.686.62a.9.9,0,0,0-.535-.212.5.5,0,0,0-.45.273,1.3,1.3,0,0,1,.844.753,3.378,3.378,0,0,1,.307,1.011.768.768,0,0,0-.091.094,3.965,3.965,0,0,1-.978-.361c-.392-.2-.758-.476-.758-.826a.478.478,0,0,0-.272.466.892.892,0,0,0,.212.531c-.1.02-.619.493-.619.688s.36.547.62.686a.9.9,0,0,0-.212.537.5.5,0,0,0,.272.451,1.309,1.309,0,0,1,.752-.847,3.383,3.383,0,0,1,1-.305.814.814,0,0,0,.095.092,4.154,4.154,0,0,1-.359.965c-.2.391-.475.76-.824.76a.478.478,0,0,0,.466.272.891.891,0,0,0,.529-.213c.019.1.493.621.686.621s.545-.36.685-.621a.9.9,0,0,0,.536.212.5.5,0,0,0,.45-.272,1.305,1.305,0,0,1-.845-.754,3.356,3.356,0,0,1-.3-.995.754.754,0,0,0,.088-.093,4.094,4.094,0,0,1,.973.361c.391.2.757.476.757.827a.479.479,0,0,0,.272-.466.893.893,0,0,0-.212-.53c.1-.02.619-.494.619-.688" transform="translate(-188.177 -126.581)"/>
    <path id="Path_37" data-name="Path 37" class="cls-1" d="M257.227,164.649c0-.194-.359-.547-.619-.687a.908.908,0,0,0,.212-.537.5.5,0,0,0-.272-.452,1.306,1.306,0,0,1-.752.847,3.365,3.365,0,0,1-1,.307.855.855,0,0,0-.092-.088,3.945,3.945,0,0,1,.361-.986c.2-.392.476-.76.825-.76a.477.477,0,0,0-.465-.273.891.891,0,0,0-.529.212c-.02-.1-.493-.62-.686-.62s-.545.36-.686.62a.9.9,0,0,0-.535-.212.5.5,0,0,0-.45.273,1.3,1.3,0,0,1,.844.753,3.378,3.378,0,0,1,.307,1.011.768.768,0,0,0-.091.094,3.965,3.965,0,0,1-.978-.361c-.392-.2-.758-.476-.758-.826a.478.478,0,0,0-.272.466.892.892,0,0,0,.212.531c-.1.02-.619.493-.619.688s.36.547.62.686a.9.9,0,0,0-.212.537.5.5,0,0,0,.272.451,1.309,1.309,0,0,1,.752-.847,3.383,3.383,0,0,1,1-.305.814.814,0,0,0,.095.092,4.154,4.154,0,0,1-.359.965c-.2.391-.475.76-.824.76a.478.478,0,0,0,.466.272.891.891,0,0,0,.529-.213c.019.1.493.621.686.621s.545-.36.685-.621a.9.9,0,0,0,.536.212.5.5,0,0,0,.45-.272,1.305,1.305,0,0,1-.845-.754,3.356,3.356,0,0,1-.3-.995.754.754,0,0,0,.088-.093,4.094,4.094,0,0,1,.973.361c.391.2.757.476.757.827a.479.479,0,0,0,.272-.466.893.893,0,0,0-.212-.53c.1-.02.619-.494.619-.688" transform="translate(-164.177 -99.581)"/>
    <path id="Path_44" data-name="Path 44" class="cls-1" d="M257.227,164.649c0-.194-.359-.547-.619-.687a.908.908,0,0,0,.212-.537.5.5,0,0,0-.272-.452,1.306,1.306,0,0,1-.752.847,3.365,3.365,0,0,1-1,.307.855.855,0,0,0-.092-.088,3.945,3.945,0,0,1,.361-.986c.2-.392.476-.76.825-.76a.477.477,0,0,0-.465-.273.891.891,0,0,0-.529.212c-.02-.1-.493-.62-.686-.62s-.545.36-.686.62a.9.9,0,0,0-.535-.212.5.5,0,0,0-.45.273,1.3,1.3,0,0,1,.844.753,3.378,3.378,0,0,1,.307,1.011.768.768,0,0,0-.091.094,3.965,3.965,0,0,1-.978-.361c-.392-.2-.758-.476-.758-.826a.478.478,0,0,0-.272.466.892.892,0,0,0,.212.531c-.1.02-.619.493-.619.688s.36.547.62.686a.9.9,0,0,0-.212.537.5.5,0,0,0,.272.451,1.309,1.309,0,0,1,.752-.847,3.383,3.383,0,0,1,1-.305.814.814,0,0,0,.095.092,4.154,4.154,0,0,1-.359.965c-.2.391-.475.76-.824.76a.478.478,0,0,0,.466.272.891.891,0,0,0,.529-.213c.019.1.493.621.686.621s.545-.36.685-.621a.9.9,0,0,0,.536.212.5.5,0,0,0,.45-.272,1.305,1.305,0,0,1-.845-.754,3.356,3.356,0,0,1-.3-.995.754.754,0,0,0,.088-.093,4.094,4.094,0,0,1,.973.361c.391.2.757.476.757.827a.479.479,0,0,0,.272-.466.893.893,0,0,0-.212-.53c.1-.02.619-.494.619-.688" transform="translate(-164.177 -126.581)"/>
    <path id="Path_38" data-name="Path 38" class="cls-1" d="M257.227,164.649c0-.194-.359-.547-.619-.687a.908.908,0,0,0,.212-.537.5.5,0,0,0-.272-.452,1.306,1.306,0,0,1-.752.847,3.365,3.365,0,0,1-1,.307.855.855,0,0,0-.092-.088,3.945,3.945,0,0,1,.361-.986c.2-.392.476-.76.825-.76a.477.477,0,0,0-.465-.273.891.891,0,0,0-.529.212c-.02-.1-.493-.62-.686-.62s-.545.36-.686.62a.9.9,0,0,0-.535-.212.5.5,0,0,0-.45.273,1.3,1.3,0,0,1,.844.753,3.378,3.378,0,0,1,.307,1.011.768.768,0,0,0-.091.094,3.965,3.965,0,0,1-.978-.361c-.392-.2-.758-.476-.758-.826a.478.478,0,0,0-.272.466.892.892,0,0,0,.212.531c-.1.02-.619.493-.619.688s.36.547.62.686a.9.9,0,0,0-.212.537.5.5,0,0,0,.272.451,1.309,1.309,0,0,1,.752-.847,3.383,3.383,0,0,1,1-.305.814.814,0,0,0,.095.092,4.154,4.154,0,0,1-.359.965c-.2.391-.475.76-.824.76a.478.478,0,0,0,.466.272.891.891,0,0,0,.529-.213c.019.1.493.621.686.621s.545-.36.685-.621a.9.9,0,0,0,.536.212.5.5,0,0,0,.45-.272,1.305,1.305,0,0,1-.845-.754,3.356,3.356,0,0,1-.3-.995.754.754,0,0,0,.088-.093,4.094,4.094,0,0,1,.973.361c.391.2.757.476.757.827a.479.479,0,0,0,.272-.466.893.893,0,0,0-.212-.53c.1-.02.619-.494.619-.688" transform="translate(-140.177 -99.581)"/>
    <path id="Path_41" data-name="Path 41" class="cls-1" d="M257.227,164.649c0-.194-.359-.547-.619-.687a.908.908,0,0,0,.212-.537.5.5,0,0,0-.272-.452,1.306,1.306,0,0,1-.752.847,3.365,3.365,0,0,1-1,.307.855.855,0,0,0-.092-.088,3.945,3.945,0,0,1,.361-.986c.2-.392.476-.76.825-.76a.477.477,0,0,0-.465-.273.891.891,0,0,0-.529.212c-.02-.1-.493-.62-.686-.62s-.545.36-.686.62a.9.9,0,0,0-.535-.212.5.5,0,0,0-.45.273,1.3,1.3,0,0,1,.844.753,3.378,3.378,0,0,1,.307,1.011.768.768,0,0,0-.091.094,3.965,3.965,0,0,1-.978-.361c-.392-.2-.758-.476-.758-.826a.478.478,0,0,0-.272.466.892.892,0,0,0,.212.531c-.1.02-.619.493-.619.688s.36.547.62.686a.9.9,0,0,0-.212.537.5.5,0,0,0,.272.451,1.309,1.309,0,0,1,.752-.847,3.383,3.383,0,0,1,1-.305.814.814,0,0,0,.095.092,4.154,4.154,0,0,1-.359.965c-.2.391-.475.76-.824.76a.478.478,0,0,0,.466.272.891.891,0,0,0,.529-.213c.019.1.493.621.686.621s.545-.36.685-.621a.9.9,0,0,0,.536.212.5.5,0,0,0,.45-.272,1.305,1.305,0,0,1-.845-.754,3.356,3.356,0,0,1-.3-.995.754.754,0,0,0,.088-.093,4.094,4.094,0,0,1,.973.361c.391.2.757.476.757.827a.479.479,0,0,0,.272-.466.893.893,0,0,0-.212-.53c.1-.02.619-.494.619-.688" transform="translate(-140.177 -126.581)"/>
    <path id="Path_56" data-name="Path 56" class="cls-1" d="M257.227,164.649c0-.194-.359-.547-.619-.687a.908.908,0,0,0,.212-.537.5.5,0,0,0-.272-.452,1.306,1.306,0,0,1-.752.847,3.365,3.365,0,0,1-1,.307.855.855,0,0,0-.092-.088,3.945,3.945,0,0,1,.361-.986c.2-.392.476-.76.825-.76a.477.477,0,0,0-.465-.273.891.891,0,0,0-.529.212c-.02-.1-.493-.62-.686-.62s-.545.36-.686.62a.9.9,0,0,0-.535-.212.5.5,0,0,0-.45.273,1.3,1.3,0,0,1,.844.753,3.378,3.378,0,0,1,.307,1.011.768.768,0,0,0-.091.094,3.965,3.965,0,0,1-.978-.361c-.392-.2-.758-.476-.758-.826a.478.478,0,0,0-.272.466.892.892,0,0,0,.212.531c-.1.02-.619.493-.619.688s.36.547.62.686a.9.9,0,0,0-.212.537.5.5,0,0,0,.272.451,1.309,1.309,0,0,1,.752-.847,3.383,3.383,0,0,1,1-.305.814.814,0,0,0,.095.092,4.154,4.154,0,0,1-.359.965c-.2.391-.475.76-.824.76a.478.478,0,0,0,.466.272.891.891,0,0,0,.529-.213c.019.1.493.621.686.621s.545-.36.685-.621a.9.9,0,0,0,.536.212.5.5,0,0,0,.45-.272,1.305,1.305,0,0,1-.845-.754,3.356,3.356,0,0,1-.3-.995.754.754,0,0,0,.088-.093,4.094,4.094,0,0,1,.973.361c.391.2.757.476.757.827a.479.479,0,0,0,.272-.466.893.893,0,0,0-.212-.53c.1-.02.619-.494.619-.688" transform="translate(-243.177 -126.581)"/>
    <path id="Path_57" data-name="Path 57" class="cls-1" d="M257.227,164.649c0-.194-.359-.547-.619-.687a.908.908,0,0,0,.212-.537.5.5,0,0,0-.272-.452,1.306,1.306,0,0,1-.752.847,3.365,3.365,0,0,1-1,.307.855.855,0,0,0-.092-.088,3.945,3.945,0,0,1,.361-.986c.2-.392.476-.76.825-.76a.477.477,0,0,0-.465-.273.891.891,0,0,0-.529.212c-.02-.1-.493-.62-.686-.62s-.545.36-.686.62a.9.9,0,0,0-.535-.212.5.5,0,0,0-.45.273,1.3,1.3,0,0,1,.844.753,3.378,3.378,0,0,1,.307,1.011.768.768,0,0,0-.091.094,3.965,3.965,0,0,1-.978-.361c-.392-.2-.758-.476-.758-.826a.478.478,0,0,0-.272.466.892.892,0,0,0,.212.531c-.1.02-.619.493-.619.688s.36.547.62.686a.9.9,0,0,0-.212.537.5.5,0,0,0,.272.451,1.309,1.309,0,0,1,.752-.847,3.383,3.383,0,0,1,1-.305.814.814,0,0,0,.095.092,4.154,4.154,0,0,1-.359.965c-.2.391-.475.76-.824.76a.478.478,0,0,0,.466.272.891.891,0,0,0,.529-.213c.019.1.493.621.686.621s.545-.36.685-.621a.9.9,0,0,0,.536.212.5.5,0,0,0,.45-.272,1.305,1.305,0,0,1-.845-.754,3.356,3.356,0,0,1-.3-.995.754.754,0,0,0,.088-.093,4.094,4.094,0,0,1,.973.361c.391.2.757.476.757.827a.479.479,0,0,0,.272-.466.893.893,0,0,0-.212-.53c.1-.02.619-.494.619-.688" transform="translate(-251.177 -99.581)"/>
    <path id="Path_59" data-name="Path 59" class="cls-1" d="M257.227,164.649c0-.194-.359-.547-.619-.687a.908.908,0,0,0,.212-.537.5.5,0,0,0-.272-.452,1.306,1.306,0,0,1-.752.847,3.365,3.365,0,0,1-1,.307.855.855,0,0,0-.092-.088,3.945,3.945,0,0,1,.361-.986c.2-.392.476-.76.825-.76a.477.477,0,0,0-.465-.273.891.891,0,0,0-.529.212c-.02-.1-.493-.62-.686-.62s-.545.36-.686.62a.9.9,0,0,0-.535-.212.5.5,0,0,0-.45.273,1.3,1.3,0,0,1,.844.753,3.378,3.378,0,0,1,.307,1.011.768.768,0,0,0-.091.094,3.965,3.965,0,0,1-.978-.361c-.392-.2-.758-.476-.758-.826a.478.478,0,0,0-.272.466.892.892,0,0,0,.212.531c-.1.02-.619.493-.619.688s.36.547.62.686a.9.9,0,0,0-.212.537.5.5,0,0,0,.272.451,1.309,1.309,0,0,1,.752-.847,3.383,3.383,0,0,1,1-.305.814.814,0,0,0,.095.092,4.154,4.154,0,0,1-.359.965c-.2.391-.475.76-.824.76a.478.478,0,0,0,.466.272.891.891,0,0,0,.529-.213c.019.1.493.621.686.621s.545-.36.685-.621a.9.9,0,0,0,.536.212.5.5,0,0,0,.45-.272,1.305,1.305,0,0,1-.845-.754,3.356,3.356,0,0,1-.3-.995.754.754,0,0,0,.088-.093,4.094,4.094,0,0,1,.973.361c.391.2.757.476.757.827a.479.479,0,0,0,.272-.466.893.893,0,0,0-.212-.53c.1-.02.619-.494.619-.688" transform="translate(-86.177 -99.581)"/>
    <path id="Path_58" data-name="Path 58" class="cls-1" d="M257.227,164.649c0-.194-.359-.547-.619-.687a.908.908,0,0,0,.212-.537.5.5,0,0,0-.272-.452,1.306,1.306,0,0,1-.752.847,3.365,3.365,0,0,1-1,.307.855.855,0,0,0-.092-.088,3.945,3.945,0,0,1,.361-.986c.2-.392.476-.76.825-.76a.477.477,0,0,0-.465-.273.891.891,0,0,0-.529.212c-.02-.1-.493-.62-.686-.62s-.545.36-.686.62a.9.9,0,0,0-.535-.212.5.5,0,0,0-.45.273,1.3,1.3,0,0,1,.844.753,3.378,3.378,0,0,1,.307,1.011.768.768,0,0,0-.091.094,3.965,3.965,0,0,1-.978-.361c-.392-.2-.758-.476-.758-.826a.478.478,0,0,0-.272.466.892.892,0,0,0,.212.531c-.1.02-.619.493-.619.688s.36.547.62.686a.9.9,0,0,0-.212.537.5.5,0,0,0,.272.451,1.309,1.309,0,0,1,.752-.847,3.383,3.383,0,0,1,1-.305.814.814,0,0,0,.095.092,4.154,4.154,0,0,1-.359.965c-.2.391-.475.76-.824.76a.478.478,0,0,0,.466.272.891.891,0,0,0,.529-.213c.019.1.493.621.686.621s.545-.36.685-.621a.9.9,0,0,0,.536.212.5.5,0,0,0,.45-.272,1.305,1.305,0,0,1-.845-.754,3.356,3.356,0,0,1-.3-.995.754.754,0,0,0,.088-.093,4.094,4.094,0,0,1,.973.361c.391.2.757.476.757.827a.479.479,0,0,0,.272-.466.893.893,0,0,0-.212-.53c.1-.02.619-.494.619-.688" transform="translate(-251.177 -126.581)"/>
    <path id="Path_61" data-name="Path 61" class="cls-1" d="M257.227,164.649c0-.194-.359-.547-.619-.687a.908.908,0,0,0,.212-.537.5.5,0,0,0-.272-.452,1.306,1.306,0,0,1-.752.847,3.365,3.365,0,0,1-1,.307.855.855,0,0,0-.092-.088,3.945,3.945,0,0,1,.361-.986c.2-.392.476-.76.825-.76a.477.477,0,0,0-.465-.273.891.891,0,0,0-.529.212c-.02-.1-.493-.62-.686-.62s-.545.36-.686.62a.9.9,0,0,0-.535-.212.5.5,0,0,0-.45.273,1.3,1.3,0,0,1,.844.753,3.378,3.378,0,0,1,.307,1.011.768.768,0,0,0-.091.094,3.965,3.965,0,0,1-.978-.361c-.392-.2-.758-.476-.758-.826a.478.478,0,0,0-.272.466.892.892,0,0,0,.212.531c-.1.02-.619.493-.619.688s.36.547.62.686a.9.9,0,0,0-.212.537.5.5,0,0,0,.272.451,1.309,1.309,0,0,1,.752-.847,3.383,3.383,0,0,1,1-.305.814.814,0,0,0,.095.092,4.154,4.154,0,0,1-.359.965c-.2.391-.475.76-.824.76a.478.478,0,0,0,.466.272.891.891,0,0,0,.529-.213c.019.1.493.621.686.621s.545-.36.685-.621a.9.9,0,0,0,.536.212.5.5,0,0,0,.45-.272,1.305,1.305,0,0,1-.845-.754,3.356,3.356,0,0,1-.3-.995.754.754,0,0,0,.088-.093,4.094,4.094,0,0,1,.973.361c.391.2.757.476.757.827a.479.479,0,0,0,.272-.466.893.893,0,0,0-.212-.53c.1-.02.619-.494.619-.688" transform="translate(-251.177 -117.581)"/>
    <path id="Path_66" data-name="Path 66" class="cls-1" d="M257.227,164.649c0-.194-.359-.547-.619-.687a.908.908,0,0,0,.212-.537.5.5,0,0,0-.272-.452,1.306,1.306,0,0,1-.752.847,3.365,3.365,0,0,1-1,.307.855.855,0,0,0-.092-.088,3.945,3.945,0,0,1,.361-.986c.2-.392.476-.76.825-.76a.477.477,0,0,0-.465-.273.891.891,0,0,0-.529.212c-.02-.1-.493-.62-.686-.62s-.545.36-.686.62a.9.9,0,0,0-.535-.212.5.5,0,0,0-.45.273,1.3,1.3,0,0,1,.844.753,3.378,3.378,0,0,1,.307,1.011.768.768,0,0,0-.091.094,3.965,3.965,0,0,1-.978-.361c-.392-.2-.758-.476-.758-.826a.478.478,0,0,0-.272.466.892.892,0,0,0,.212.531c-.1.02-.619.493-.619.688s.36.547.62.686a.9.9,0,0,0-.212.537.5.5,0,0,0,.272.451,1.309,1.309,0,0,1,.752-.847,3.383,3.383,0,0,1,1-.305.814.814,0,0,0,.095.092,4.154,4.154,0,0,1-.359.965c-.2.391-.475.76-.824.76a.478.478,0,0,0,.466.272.891.891,0,0,0,.529-.213c.019.1.493.621.686.621s.545-.36.685-.621a.9.9,0,0,0,.536.212.5.5,0,0,0,.45-.272,1.305,1.305,0,0,1-.845-.754,3.356,3.356,0,0,1-.3-.995.754.754,0,0,0,.088-.093,4.094,4.094,0,0,1,.973.361c.391.2.757.476.757.827a.479.479,0,0,0,.272-.466.893.893,0,0,0-.212-.53c.1-.02.619-.494.619-.688" transform="translate(-86.177 -117.581)"/>
    <path id="Path_63" data-name="Path 63" class="cls-1" d="M257.227,164.649c0-.194-.359-.547-.619-.687a.908.908,0,0,0,.212-.537.5.5,0,0,0-.272-.452,1.306,1.306,0,0,1-.752.847,3.365,3.365,0,0,1-1,.307.855.855,0,0,0-.092-.088,3.945,3.945,0,0,1,.361-.986c.2-.392.476-.76.825-.76a.477.477,0,0,0-.465-.273.891.891,0,0,0-.529.212c-.02-.1-.493-.62-.686-.62s-.545.36-.686.62a.9.9,0,0,0-.535-.212.5.5,0,0,0-.45.273,1.3,1.3,0,0,1,.844.753,3.378,3.378,0,0,1,.307,1.011.768.768,0,0,0-.091.094,3.965,3.965,0,0,1-.978-.361c-.392-.2-.758-.476-.758-.826a.478.478,0,0,0-.272.466.892.892,0,0,0,.212.531c-.1.02-.619.493-.619.688s.36.547.62.686a.9.9,0,0,0-.212.537.5.5,0,0,0,.272.451,1.309,1.309,0,0,1,.752-.847,3.383,3.383,0,0,1,1-.305.814.814,0,0,0,.095.092,4.154,4.154,0,0,1-.359.965c-.2.391-.475.76-.824.76a.478.478,0,0,0,.466.272.891.891,0,0,0,.529-.213c.019.1.493.621.686.621s.545-.36.685-.621a.9.9,0,0,0,.536.212.5.5,0,0,0,.45-.272,1.305,1.305,0,0,1-.845-.754,3.356,3.356,0,0,1-.3-.995.754.754,0,0,0,.088-.093,4.094,4.094,0,0,1,.973.361c.391.2.757.476.757.827a.479.479,0,0,0,.272-.466.893.893,0,0,0-.212-.53c.1-.02.619-.494.619-.688" transform="translate(-251.177 -108.581)"/>
    <path id="Path_64" data-name="Path 64" class="cls-1" d="M257.227,164.649c0-.194-.359-.547-.619-.687a.908.908,0,0,0,.212-.537.5.5,0,0,0-.272-.452,1.306,1.306,0,0,1-.752.847,3.365,3.365,0,0,1-1,.307.855.855,0,0,0-.092-.088,3.945,3.945,0,0,1,.361-.986c.2-.392.476-.76.825-.76a.477.477,0,0,0-.465-.273.891.891,0,0,0-.529.212c-.02-.1-.493-.62-.686-.62s-.545.36-.686.62a.9.9,0,0,0-.535-.212.5.5,0,0,0-.45.273,1.3,1.3,0,0,1,.844.753,3.378,3.378,0,0,1,.307,1.011.768.768,0,0,0-.091.094,3.965,3.965,0,0,1-.978-.361c-.392-.2-.758-.476-.758-.826a.478.478,0,0,0-.272.466.892.892,0,0,0,.212.531c-.1.02-.619.493-.619.688s.36.547.62.686a.9.9,0,0,0-.212.537.5.5,0,0,0,.272.451,1.309,1.309,0,0,1,.752-.847,3.383,3.383,0,0,1,1-.305.814.814,0,0,0,.095.092,4.154,4.154,0,0,1-.359.965c-.2.391-.475.76-.824.76a.478.478,0,0,0,.466.272.891.891,0,0,0,.529-.213c.019.1.493.621.686.621s.545-.36.685-.621a.9.9,0,0,0,.536.212.5.5,0,0,0,.45-.272,1.305,1.305,0,0,1-.845-.754,3.356,3.356,0,0,1-.3-.995.754.754,0,0,0,.088-.093,4.094,4.094,0,0,1,.973.361c.391.2.757.476.757.827a.479.479,0,0,0,.272-.466.893.893,0,0,0-.212-.53c.1-.02.619-.494.619-.688" transform="translate(-86.177 -108.581)"/>
    <path id="Path_60" data-name="Path 60" class="cls-1" d="M257.227,164.649c0-.194-.359-.547-.619-.687a.908.908,0,0,0,.212-.537.5.5,0,0,0-.272-.452,1.306,1.306,0,0,1-.752.847,3.365,3.365,0,0,1-1,.307.855.855,0,0,0-.092-.088,3.945,3.945,0,0,1,.361-.986c.2-.392.476-.76.825-.76a.477.477,0,0,0-.465-.273.891.891,0,0,0-.529.212c-.02-.1-.493-.62-.686-.62s-.545.36-.686.62a.9.9,0,0,0-.535-.212.5.5,0,0,0-.45.273,1.3,1.3,0,0,1,.844.753,3.378,3.378,0,0,1,.307,1.011.768.768,0,0,0-.091.094,3.965,3.965,0,0,1-.978-.361c-.392-.2-.758-.476-.758-.826a.478.478,0,0,0-.272.466.892.892,0,0,0,.212.531c-.1.02-.619.493-.619.688s.36.547.62.686a.9.9,0,0,0-.212.537.5.5,0,0,0,.272.451,1.309,1.309,0,0,1,.752-.847,3.383,3.383,0,0,1,1-.305.814.814,0,0,0,.095.092,4.154,4.154,0,0,1-.359.965c-.2.391-.475.76-.824.76a.478.478,0,0,0,.466.272.891.891,0,0,0,.529-.213c.019.1.493.621.686.621s.545-.36.685-.621a.9.9,0,0,0,.536.212.5.5,0,0,0,.45-.272,1.305,1.305,0,0,1-.845-.754,3.356,3.356,0,0,1-.3-.995.754.754,0,0,0,.088-.093,4.094,4.094,0,0,1,.973.361c.391.2.757.476.757.827a.479.479,0,0,0,.272-.466.893.893,0,0,0-.212-.53c.1-.02.619-.494.619-.688" transform="translate(-86.177 -126.581)"/>
    <path id="Path_86" data-name="Path 86" class="cls-1" d="M257.227,164.649c0-.194-.359-.547-.619-.687a.908.908,0,0,0,.212-.537.5.5,0,0,0-.272-.452,1.306,1.306,0,0,1-.752.847,3.365,3.365,0,0,1-1,.307.855.855,0,0,0-.092-.088,3.945,3.945,0,0,1,.361-.986c.2-.392.476-.76.825-.76a.477.477,0,0,0-.465-.273.891.891,0,0,0-.529.212c-.02-.1-.493-.62-.686-.62s-.545.36-.686.62a.9.9,0,0,0-.535-.212.5.5,0,0,0-.45.273,1.3,1.3,0,0,1,.844.753,3.378,3.378,0,0,1,.307,1.011.768.768,0,0,0-.091.094,3.965,3.965,0,0,1-.978-.361c-.392-.2-.758-.476-.758-.826a.478.478,0,0,0-.272.466.892.892,0,0,0,.212.531c-.1.02-.619.493-.619.688s.36.547.62.686a.9.9,0,0,0-.212.537.5.5,0,0,0,.272.451,1.309,1.309,0,0,1,.752-.847,3.383,3.383,0,0,1,1-.305.814.814,0,0,0,.095.092,4.154,4.154,0,0,1-.359.965c-.2.391-.475.76-.824.76a.478.478,0,0,0,.466.272.891.891,0,0,0,.529-.213c.019.1.493.621.686.621s.545-.36.685-.621a.9.9,0,0,0,.536.212.5.5,0,0,0,.45-.272,1.305,1.305,0,0,1-.845-.754,3.356,3.356,0,0,1-.3-.995.754.754,0,0,0,.088-.093,4.094,4.094,0,0,1,.973.361c.391.2.757.476.757.827a.479.479,0,0,0,.272-.466.893.893,0,0,0-.212-.53c.1-.02.619-.494.619-.688" transform="translate(-124.177 -99.581)"/>
    <path id="Path_87" data-name="Path 87" class="cls-1" d="M257.227,164.649c0-.194-.359-.547-.619-.687a.908.908,0,0,0,.212-.537.5.5,0,0,0-.272-.452,1.306,1.306,0,0,1-.752.847,3.365,3.365,0,0,1-1,.307.855.855,0,0,0-.092-.088,3.945,3.945,0,0,1,.361-.986c.2-.392.476-.76.825-.76a.477.477,0,0,0-.465-.273.891.891,0,0,0-.529.212c-.02-.1-.493-.62-.686-.62s-.545.36-.686.62a.9.9,0,0,0-.535-.212.5.5,0,0,0-.45.273,1.3,1.3,0,0,1,.844.753,3.378,3.378,0,0,1,.307,1.011.768.768,0,0,0-.091.094,3.965,3.965,0,0,1-.978-.361c-.392-.2-.758-.476-.758-.826a.478.478,0,0,0-.272.466.892.892,0,0,0,.212.531c-.1.02-.619.493-.619.688s.36.547.62.686a.9.9,0,0,0-.212.537.5.5,0,0,0,.272.451,1.309,1.309,0,0,1,.752-.847,3.383,3.383,0,0,1,1-.305.814.814,0,0,0,.095.092,4.154,4.154,0,0,1-.359.965c-.2.391-.475.76-.824.76a.478.478,0,0,0,.466.272.891.891,0,0,0,.529-.213c.019.1.493.621.686.621s.545-.36.685-.621a.9.9,0,0,0,.536.212.5.5,0,0,0,.45-.272,1.305,1.305,0,0,1-.845-.754,3.356,3.356,0,0,1-.3-.995.754.754,0,0,0,.088-.093,4.094,4.094,0,0,1,.973.361c.391.2.757.476.757.827a.479.479,0,0,0,.272-.466.893.893,0,0,0-.212-.53c.1-.02.619-.494.619-.688" transform="translate(-124.177 -126.581)"/>
    <path id="Path_88" data-name="Path 88" class="cls-1" d="M257.227,164.649c0-.194-.359-.547-.619-.687a.908.908,0,0,0,.212-.537.5.5,0,0,0-.272-.452,1.306,1.306,0,0,1-.752.847,3.365,3.365,0,0,1-1,.307.855.855,0,0,0-.092-.088,3.945,3.945,0,0,1,.361-.986c.2-.392.476-.76.825-.76a.477.477,0,0,0-.465-.273.891.891,0,0,0-.529.212c-.02-.1-.493-.62-.686-.62s-.545.36-.686.62a.9.9,0,0,0-.535-.212.5.5,0,0,0-.45.273,1.3,1.3,0,0,1,.844.753,3.378,3.378,0,0,1,.307,1.011.768.768,0,0,0-.091.094,3.965,3.965,0,0,1-.978-.361c-.392-.2-.758-.476-.758-.826a.478.478,0,0,0-.272.466.892.892,0,0,0,.212.531c-.1.02-.619.493-.619.688s.36.547.62.686a.9.9,0,0,0-.212.537.5.5,0,0,0,.272.451,1.309,1.309,0,0,1,.752-.847,3.383,3.383,0,0,1,1-.305.814.814,0,0,0,.095.092,4.154,4.154,0,0,1-.359.965c-.2.391-.475.76-.824.76a.478.478,0,0,0,.466.272.891.891,0,0,0,.529-.213c.019.1.493.621.686.621s.545-.36.685-.621a.9.9,0,0,0,.536.212.5.5,0,0,0,.45-.272,1.305,1.305,0,0,1-.845-.754,3.356,3.356,0,0,1-.3-.995.754.754,0,0,0,.088-.093,4.094,4.094,0,0,1,.973.361c.391.2.757.476.757.827a.479.479,0,0,0,.272-.466.893.893,0,0,0-.212-.53c.1-.02.619-.494.619-.688" transform="translate(-116.176 -99.581)"/>
    <path id="Path_89" data-name="Path 89" class="cls-1" d="M257.227,164.649c0-.194-.359-.547-.619-.687a.908.908,0,0,0,.212-.537.5.5,0,0,0-.272-.452,1.306,1.306,0,0,1-.752.847,3.365,3.365,0,0,1-1,.307.855.855,0,0,0-.092-.088,3.945,3.945,0,0,1,.361-.986c.2-.392.476-.76.825-.76a.477.477,0,0,0-.465-.273.891.891,0,0,0-.529.212c-.02-.1-.493-.62-.686-.62s-.545.36-.686.62a.9.9,0,0,0-.535-.212.5.5,0,0,0-.45.273,1.3,1.3,0,0,1,.844.753,3.378,3.378,0,0,1,.307,1.011.768.768,0,0,0-.091.094,3.965,3.965,0,0,1-.978-.361c-.392-.2-.758-.476-.758-.826a.478.478,0,0,0-.272.466.892.892,0,0,0,.212.531c-.1.02-.619.493-.619.688s.36.547.62.686a.9.9,0,0,0-.212.537.5.5,0,0,0,.272.451,1.309,1.309,0,0,1,.752-.847,3.383,3.383,0,0,1,1-.305.814.814,0,0,0,.095.092,4.154,4.154,0,0,1-.359.965c-.2.391-.475.76-.824.76a.478.478,0,0,0,.466.272.891.891,0,0,0,.529-.213c.019.1.493.621.686.621s.545-.36.685-.621a.9.9,0,0,0,.536.212.5.5,0,0,0,.45-.272,1.305,1.305,0,0,1-.845-.754,3.356,3.356,0,0,1-.3-.995.754.754,0,0,0,.088-.093,4.094,4.094,0,0,1,.973.361c.391.2.757.476.757.827a.479.479,0,0,0,.272-.466.893.893,0,0,0-.212-.53c.1-.02.619-.494.619-.688" transform="translate(-116.176 -126.581)"/>
    <path id="Path_90" data-name="Path 90" class="cls-1" d="M257.227,164.649c0-.194-.359-.547-.619-.687a.908.908,0,0,0,.212-.537.5.5,0,0,0-.272-.452,1.306,1.306,0,0,1-.752.847,3.365,3.365,0,0,1-1,.307.855.855,0,0,0-.092-.088,3.945,3.945,0,0,1,.361-.986c.2-.392.476-.76.825-.76a.477.477,0,0,0-.465-.273.891.891,0,0,0-.529.212c-.02-.1-.493-.62-.686-.62s-.545.36-.686.62a.9.9,0,0,0-.535-.212.5.5,0,0,0-.45.273,1.3,1.3,0,0,1,.844.753,3.378,3.378,0,0,1,.307,1.011.768.768,0,0,0-.091.094,3.965,3.965,0,0,1-.978-.361c-.392-.2-.758-.476-.758-.826a.478.478,0,0,0-.272.466.892.892,0,0,0,.212.531c-.1.02-.619.493-.619.688s.36.547.62.686a.9.9,0,0,0-.212.537.5.5,0,0,0,.272.451,1.309,1.309,0,0,1,.752-.847,3.383,3.383,0,0,1,1-.305.814.814,0,0,0,.095.092,4.154,4.154,0,0,1-.359.965c-.2.391-.475.76-.824.76a.478.478,0,0,0,.466.272.891.891,0,0,0,.529-.213c.019.1.493.621.686.621s.545-.36.685-.621a.9.9,0,0,0,.536.212.5.5,0,0,0,.45-.272,1.305,1.305,0,0,1-.845-.754,3.356,3.356,0,0,1-.3-.995.754.754,0,0,0,.088-.093,4.094,4.094,0,0,1,.973.361c.391.2.757.476.757.827a.479.479,0,0,0,.272-.466.893.893,0,0,0-.212-.53c.1-.02.619-.494.619-.688" transform="translate(-108.176 -99.581)"/>
    <path id="Path_91" data-name="Path 91" class="cls-1" d="M257.227,164.649c0-.194-.359-.547-.619-.687a.908.908,0,0,0,.212-.537.5.5,0,0,0-.272-.452,1.306,1.306,0,0,1-.752.847,3.365,3.365,0,0,1-1,.307.855.855,0,0,0-.092-.088,3.945,3.945,0,0,1,.361-.986c.2-.392.476-.76.825-.76a.477.477,0,0,0-.465-.273.891.891,0,0,0-.529.212c-.02-.1-.493-.62-.686-.62s-.545.36-.686.62a.9.9,0,0,0-.535-.212.5.5,0,0,0-.45.273,1.3,1.3,0,0,1,.844.753,3.378,3.378,0,0,1,.307,1.011.768.768,0,0,0-.091.094,3.965,3.965,0,0,1-.978-.361c-.392-.2-.758-.476-.758-.826a.478.478,0,0,0-.272.466.892.892,0,0,0,.212.531c-.1.02-.619.493-.619.688s.36.547.62.686a.9.9,0,0,0-.212.537.5.5,0,0,0,.272.451,1.309,1.309,0,0,1,.752-.847,3.383,3.383,0,0,1,1-.305.814.814,0,0,0,.095.092,4.154,4.154,0,0,1-.359.965c-.2.391-.475.76-.824.76a.478.478,0,0,0,.466.272.891.891,0,0,0,.529-.213c.019.1.493.621.686.621s.545-.36.685-.621a.9.9,0,0,0,.536.212.5.5,0,0,0,.45-.272,1.305,1.305,0,0,1-.845-.754,3.356,3.356,0,0,1-.3-.995.754.754,0,0,0,.088-.093,4.094,4.094,0,0,1,.973.361c.391.2.757.476.757.827a.479.479,0,0,0,.272-.466.893.893,0,0,0-.212-.53c.1-.02.619-.494.619-.688" transform="translate(-108.176 -126.581)"/>
    <path id="Path_92" data-name="Path 92" class="cls-1" d="M257.227,164.649c0-.194-.359-.547-.619-.687a.908.908,0,0,0,.212-.537.5.5,0,0,0-.272-.452,1.306,1.306,0,0,1-.752.847,3.365,3.365,0,0,1-1,.307.855.855,0,0,0-.092-.088,3.945,3.945,0,0,1,.361-.986c.2-.392.476-.76.825-.76a.477.477,0,0,0-.465-.273.891.891,0,0,0-.529.212c-.02-.1-.493-.62-.686-.62s-.545.36-.686.62a.9.9,0,0,0-.535-.212.5.5,0,0,0-.45.273,1.3,1.3,0,0,1,.844.753,3.378,3.378,0,0,1,.307,1.011.768.768,0,0,0-.091.094,3.965,3.965,0,0,1-.978-.361c-.392-.2-.758-.476-.758-.826a.478.478,0,0,0-.272.466.892.892,0,0,0,.212.531c-.1.02-.619.493-.619.688s.36.547.62.686a.9.9,0,0,0-.212.537.5.5,0,0,0,.272.451,1.309,1.309,0,0,1,.752-.847,3.383,3.383,0,0,1,1-.305.814.814,0,0,0,.095.092,4.154,4.154,0,0,1-.359.965c-.2.391-.475.76-.824.76a.478.478,0,0,0,.466.272.891.891,0,0,0,.529-.213c.019.1.493.621.686.621s.545-.36.685-.621a.9.9,0,0,0,.536.212.5.5,0,0,0,.45-.272,1.305,1.305,0,0,1-.845-.754,3.356,3.356,0,0,1-.3-.995.754.754,0,0,0,.088-.093,4.094,4.094,0,0,1,.973.361c.391.2.757.476.757.827a.479.479,0,0,0,.272-.466.893.893,0,0,0-.212-.53c.1-.02.619-.494.619-.688" transform="translate(-101.176 -99.581)"/>
    <path id="Path_93" data-name="Path 93" class="cls-1" d="M257.227,164.649c0-.194-.359-.547-.619-.687a.908.908,0,0,0,.212-.537.5.5,0,0,0-.272-.452,1.306,1.306,0,0,1-.752.847,3.365,3.365,0,0,1-1,.307.855.855,0,0,0-.092-.088,3.945,3.945,0,0,1,.361-.986c.2-.392.476-.76.825-.76a.477.477,0,0,0-.465-.273.891.891,0,0,0-.529.212c-.02-.1-.493-.62-.686-.62s-.545.36-.686.62a.9.9,0,0,0-.535-.212.5.5,0,0,0-.45.273,1.3,1.3,0,0,1,.844.753,3.378,3.378,0,0,1,.307,1.011.768.768,0,0,0-.091.094,3.965,3.965,0,0,1-.978-.361c-.392-.2-.758-.476-.758-.826a.478.478,0,0,0-.272.466.892.892,0,0,0,.212.531c-.1.02-.619.493-.619.688s.36.547.62.686a.9.9,0,0,0-.212.537.5.5,0,0,0,.272.451,1.309,1.309,0,0,1,.752-.847,3.383,3.383,0,0,1,1-.305.814.814,0,0,0,.095.092,4.154,4.154,0,0,1-.359.965c-.2.391-.475.76-.824.76a.478.478,0,0,0,.466.272.891.891,0,0,0,.529-.213c.019.1.493.621.686.621s.545-.36.685-.621a.9.9,0,0,0,.536.212.5.5,0,0,0,.45-.272,1.305,1.305,0,0,1-.845-.754,3.356,3.356,0,0,1-.3-.995.754.754,0,0,0,.088-.093,4.094,4.094,0,0,1,.973.361c.391.2.757.476.757.827a.479.479,0,0,0,.272-.466.893.893,0,0,0-.212-.53c.1-.02.619-.494.619-.688" transform="translate(-101.176 -126.581)"/>
  </g>
</svg>
