<?xml version="1.0" encoding="UTF-8"?>
<svg id="Layer_2" data-name="Layer 2" xmlns="http://www.w3.org/2000/svg" viewBox="0 0 46.05 33.06">
  <defs>
    <style>
      .cls-1 {
        fill: #030404;
        stroke-width: 0px;
      }
    </style>
  </defs>
  <g id="Layer_1-2" data-name="Layer 1">
    <g>
      <path id="Path_28" data-name="Path 28" class="cls-1" d="M14.04,30.04c0-.19-.36-.55-.62-.69.13-.15.2-.34.21-.54,0-.19-.1-.37-.27-.45-.11.38-.39.69-.75.85-.32.15-.65.26-1,.31-.03-.03-.06-.06-.09-.09.08-.34.2-.67.36-.99.2-.39.48-.76.82-.76-.08-.18-.27-.29-.46-.27-.19.01-.38.09-.53.21-.02-.1-.49-.62-.69-.62s-.54.36-.69.62c-.15-.13-.34-.2-.54-.21-.19,0-.36.1-.45.27.38.11.69.39.84.75.15.32.26.66.31,1.01-.03.03-.06.06-.09.09-.34-.08-.67-.2-.98-.36-.39-.2-.76-.48-.76-.83-.18.08-.29.27-.27.47.01.2.08.38.21.53-.1.02-.62.49-.62.69s.36.55.62.69c-.13.15-.2.34-.21.54,0,.19.1.36.27.45.11-.38.39-.69.75-.85.32-.15.65-.26,1-.3.03.03.06.06.1.09-.08.34-.2.66-.36.96-.2.39-.48.76-.82.76.08.18.27.29.47.27.19-.01.38-.09.53-.21.02.1.49.62.69.62s.54-.36.68-.62c.15.13.34.2.54.21.19,0,.36-.1.45-.27-.38-.11-.69-.39-.85-.75-.15-.31-.25-.65-.3-.99.03-.03.06-.06.09-.09.34.08.67.2.97.36.39.2.76.48.76.83.18-.08.29-.27.27-.47-.01-.2-.09-.38-.21-.53.1-.02.62-.49.62-.69"/>
      <path id="Path_54" data-name="Path 54" class="cls-1" d="M14.04,3.04c0-.19-.36-.55-.62-.69.13-.15.2-.34.21-.54,0-.19-.1-.37-.27-.45-.11.38-.39.69-.75.85-.32.15-.65.26-1,.31-.03-.03-.06-.06-.09-.09.08-.34.2-.67.36-.99.2-.39.48-.76.82-.76-.08-.18-.27-.29-.46-.27-.19.01-.38.09-.53.21-.02-.1-.49-.62-.69-.62s-.54.36-.69.62c-.15-.13-.34-.2-.54-.21-.19,0-.36.1-.45.27.38.11.69.39.84.75.15.32.26.66.31,1.01-.03.03-.06.06-.09.09-.34-.08-.67-.2-.98-.36-.39-.2-.76-.48-.76-.83-.18.08-.29.27-.27.47.01.2.08.38.21.53-.1.02-.62.49-.62.69s.36.55.62.69c-.13.15-.2.34-.21.54,0,.19.1.36.27.45.11-.38.39-.69.75-.85.32-.15.65-.26,1-.3.03.03.06.06.1.09-.08.34-.2.66-.36.96-.2.39-.48.76-.82.76.08.18.27.29.47.27.19-.01.38-.09.53-.21.02.1.49.62.69.62s.54-.36.68-.62c.15.13.34.2.54.21.19,0,.36-.1.45-.27-.38-.11-.69-.39-.85-.75-.15-.31-.25-.65-.3-.99.03-.03.06-.06.09-.09.34.08.67.2.97.36.39.2.76.48.76.83.18-.08.29-.27.27-.47-.01-.2-.09-.38-.21-.53.1-.02.62-.49.62-.69"/>
      <path id="Path_33" data-name="Path 33" class="cls-1" d="M38.04,30.04c0-.19-.36-.55-.62-.69.13-.15.2-.34.21-.54,0-.19-.1-.37-.27-.45-.11.38-.39.69-.75.85-.32.15-.65.26-1,.31-.03-.03-.06-.06-.09-.09.08-.34.2-.67.36-.99.2-.39.48-.76.82-.76-.08-.18-.27-.29-.46-.27-.19.01-.38.09-.53.21-.02-.1-.49-.62-.69-.62s-.54.36-.69.62c-.15-.13-.34-.2-.54-.21-.19,0-.36.1-.45.27.38.11.69.39.84.75.15.32.26.66.31,1.01-.03.03-.06.06-.09.09-.34-.08-.67-.2-.98-.36-.39-.2-.76-.48-.76-.83-.18.08-.29.27-.27.47.01.2.08.38.21.53-.1.02-.62.49-.62.69s.36.55.62.69c-.13.15-.2.34-.21.54,0,.19.1.36.27.45.11-.38.39-.69.75-.85.32-.15.65-.26,1-.3.03.03.06.06.1.09-.08.34-.2.66-.36.96-.2.39-.48.76-.82.76.08.18.27.29.47.27.19-.01.38-.09.53-.21.02.1.49.62.69.62s.54-.36.68-.62c.15.13.34.2.54.21.19,0,.36-.1.45-.27-.38-.11-.69-.39-.85-.75-.15-.31-.25-.65-.3-.99.03-.03.06-.06.09-.09.34.08.67.2.97.36.39.2.76.48.76.83.18-.08.29-.27.27-.47-.01-.2-.09-.38-.21-.53.1-.02.62-.49.62-.69"/>
      <path id="Path_39" data-name="Path 39" class="cls-1" d="M38.04,3.04c0-.19-.36-.55-.62-.69.13-.15.2-.34.21-.54,0-.19-.1-.37-.27-.45-.11.38-.39.69-.75.85-.32.15-.65.26-1,.31-.03-.03-.06-.06-.09-.09.08-.34.2-.67.36-.99.2-.39.48-.76.82-.76-.08-.18-.27-.29-.46-.27-.19.01-.38.09-.53.21-.02-.1-.49-.62-.69-.62s-.54.36-.69.62c-.15-.13-.34-.2-.54-.21-.19,0-.36.1-.45.27.38.11.69.39.84.75.15.32.26.66.31,1.01-.03.03-.06.06-.09.09-.34-.08-.67-.2-.98-.36-.39-.2-.76-.48-.76-.83-.18.08-.29.27-.27.47.01.2.08.38.21.53-.1.02-.62.49-.62.69s.36.55.62.69c-.13.15-.2.34-.21.54,0,.19.1.36.27.45.11-.38.39-.69.75-.85.32-.15.65-.26,1-.3.03.03.06.06.1.09-.08.34-.2.66-.36.96-.2.39-.48.76-.82.76.08.18.27.29.47.27.19-.01.38-.09.53-.21.02.1.49.62.69.62s.54-.36.68-.62c.15.13.34.2.54.21.19,0,.36-.1.45-.27-.38-.11-.69-.39-.85-.75-.15-.31-.25-.65-.3-.99.03-.03.06-.06.09-.09.34.08.67.2.97.36.39.2.76.48.76.83.18-.08.29-.27.27-.47-.01-.2-.09-.38-.21-.53.1-.02.62-.49.62-.69"/>
      <path id="Path_34" data-name="Path 34" class="cls-1" d="M22.04,30.04c0-.19-.36-.55-.62-.69.13-.15.2-.34.21-.54,0-.19-.1-.37-.27-.45-.11.38-.39.69-.75.85-.32.15-.65.26-1,.31-.03-.03-.06-.06-.09-.09.08-.34.2-.67.36-.99.2-.39.48-.76.82-.76-.08-.18-.27-.29-.46-.27-.19.01-.38.09-.53.21-.02-.1-.49-.62-.69-.62s-.54.36-.69.62c-.15-.13-.34-.2-.54-.21-.19,0-.36.1-.45.27.38.11.69.39.84.75.15.32.26.66.31,1.01-.03.03-.06.06-.09.09-.34-.08-.67-.2-.98-.36-.39-.2-.76-.48-.76-.83-.18.08-.29.27-.27.47.01.2.08.38.21.53-.1.02-.62.49-.62.69s.36.55.62.69c-.13.15-.2.34-.21.54,0,.19.1.36.27.45.11-.38.39-.69.75-.85.32-.15.65-.26,1-.3.03.03.06.06.1.09-.08.34-.2.66-.36.96-.2.39-.48.76-.82.76.08.18.27.29.47.27.19-.01.38-.09.53-.21.02.1.49.62.69.62s.54-.36.68-.62c.15.13.34.2.54.21.19,0,.36-.1.45-.27-.38-.11-.69-.39-.85-.75-.15-.31-.25-.65-.3-.99.03-.03.06-.06.09-.09.34.08.67.2.97.36.39.2.76.48.76.83.18-.08.29-.27.27-.47-.01-.2-.09-.38-.21-.53.1-.02.62-.49.62-.69"/>
      <path id="Path_53" data-name="Path 53" class="cls-1" d="M22.04,3.04c0-.19-.36-.55-.62-.69.13-.15.2-.34.21-.54,0-.19-.1-.37-.27-.45-.11.38-.39.69-.75.85-.32.15-.65.26-1,.31-.03-.03-.06-.06-.09-.09.08-.34.2-.67.36-.99.2-.39.48-.76.82-.76-.08-.18-.27-.29-.46-.27-.19.01-.38.09-.53.21-.02-.1-.49-.62-.69-.62s-.54.36-.69.62c-.15-.13-.34-.2-.54-.21-.19,0-.36.1-.45.27.38.11.69.39.84.75.15.32.26.66.31,1.01-.03.03-.06.06-.09.09-.34-.08-.67-.2-.98-.36-.39-.2-.76-.48-.76-.83-.18.08-.29.27-.27.47.01.2.08.38.21.53-.1.02-.62.49-.62.69s.36.55.62.69c-.13.15-.2.34-.21.54,0,.19.1.36.27.45.11-.38.39-.69.75-.85.32-.15.65-.26,1-.3.03.03.06.06.1.09-.08.34-.2.66-.36.96-.2.39-.48.76-.82.76.08.18.27.29.47.27.19-.01.38-.09.53-.21.02.1.49.62.69.62s.54-.36.68-.62c.15.13.34.2.54.21.19,0,.36-.1.45-.27-.38-.11-.69-.39-.85-.75-.15-.31-.25-.65-.3-.99.03-.03.06-.06.09-.09.34.08.67.2.97.36.39.2.76.48.76.83.18-.08.29-.27.27-.47-.01-.2-.09-.38-.21-.53.1-.02.62-.49.62-.69"/>
      <path id="Path_35" data-name="Path 35" class="cls-1" d="M30.04,30.04c0-.19-.36-.55-.62-.69.13-.15.2-.34.21-.54,0-.19-.1-.37-.27-.45-.11.38-.39.69-.75.85-.32.15-.65.26-1,.31-.03-.03-.06-.06-.09-.09.08-.34.2-.67.36-.99.2-.39.48-.76.82-.76-.08-.18-.27-.29-.46-.27-.19.01-.38.09-.53.21-.02-.1-.49-.62-.69-.62s-.54.36-.69.62c-.15-.13-.34-.2-.54-.21-.19,0-.36.1-.45.27.38.11.69.39.84.75.15.32.26.66.31,1.01-.03.03-.06.06-.09.09-.34-.08-.67-.2-.98-.36-.39-.2-.76-.48-.76-.83-.18.08-.29.27-.27.47.01.2.08.38.21.53-.1.02-.62.49-.62.69s.36.55.62.69c-.13.15-.2.34-.21.54,0,.19.1.36.27.45.11-.38.39-.69.75-.85.32-.15.65-.26,1-.3.03.03.06.06.1.09-.08.34-.2.66-.36.96-.2.39-.48.76-.82.76.08.18.27.29.47.27.19-.01.38-.09.53-.21.02.1.49.62.69.62s.54-.36.68-.62c.15.13.34.2.54.21.19,0,.36-.1.45-.27-.38-.11-.69-.39-.85-.75-.15-.31-.25-.65-.3-.99.03-.03.06-.06.09-.09.34.08.67.2.97.36.39.2.76.48.76.83.18-.08.29-.27.27-.47-.01-.2-.09-.38-.21-.53.1-.02.62-.49.62-.69"/>
      <path id="Path_50" data-name="Path 50" class="cls-1" d="M30.04,3.04c0-.19-.36-.55-.62-.69.13-.15.2-.34.21-.54,0-.19-.1-.37-.27-.45-.11.38-.39.69-.75.85-.32.15-.65.26-1,.31-.03-.03-.06-.06-.09-.09.08-.34.2-.67.36-.99.2-.39.48-.76.82-.76-.08-.18-.27-.29-.46-.27-.19.01-.38.09-.53.21-.02-.1-.49-.62-.69-.62s-.54.36-.69.62c-.15-.13-.34-.2-.54-.21-.19,0-.36.1-.45.27.38.11.69.39.84.75.15.32.26.66.31,1.01-.03.03-.06.06-.09.09-.34-.08-.67-.2-.98-.36-.39-.2-.76-.48-.76-.83-.18.08-.29.27-.27.47.01.2.08.38.21.53-.1.02-.62.49-.62.69s.36.55.62.69c-.13.15-.2.34-.21.54,0,.19.1.36.27.45.11-.38.39-.69.75-.85.32-.15.65-.26,1-.3.03.03.06.06.1.09-.08.34-.2.66-.36.96-.2.39-.48.76-.82.76.08.18.27.29.47.27.19-.01.38-.09.53-.21.02.1.49.62.69.62s.54-.36.68-.62c.15.13.34.2.54.21.19,0,.36-.1.45-.27-.38-.11-.69-.39-.85-.75-.15-.31-.25-.65-.3-.99.03-.03.06-.06.09-.09.34.08.67.2.97.36.39.2.76.48.76.83.18-.08.29-.27.27-.47-.01-.2-.09-.38-.21-.53.1-.02.62-.49.62-.69"/>
      <path id="Path_56" data-name="Path 56" class="cls-1" d="M14.04,3.04c0-.19-.36-.55-.62-.69.13-.15.2-.34.21-.54,0-.19-.1-.37-.27-.45-.11.38-.39.69-.75.85-.32.15-.65.26-1,.31-.03-.03-.06-.06-.09-.09.08-.34.2-.67.36-.99.2-.39.48-.76.82-.76-.08-.18-.27-.29-.46-.27-.19.01-.38.09-.53.21-.02-.1-.49-.62-.69-.62s-.54.36-.69.62c-.15-.13-.34-.2-.54-.21-.19,0-.36.1-.45.27.38.11.69.39.84.75.15.32.26.66.31,1.01-.03.03-.06.06-.09.09-.34-.08-.67-.2-.98-.36-.39-.2-.76-.48-.76-.83-.18.08-.29.27-.27.47.01.2.08.38.21.53-.1.02-.62.49-.62.69s.36.55.62.69c-.13.15-.2.34-.21.54,0,.19.1.36.27.45.11-.38.39-.69.75-.85.32-.15.65-.26,1-.3.03.03.06.06.1.09-.08.34-.2.66-.36.96-.2.39-.48.76-.82.76.08.18.27.29.47.27.19-.01.38-.09.53-.21.02.1.49.62.69.62s.54-.36.68-.62c.15.13.34.2.54.21.19,0,.36-.1.45-.27-.38-.11-.69-.39-.85-.75-.15-.31-.25-.65-.3-.99.03-.03.06-.06.09-.09.34.08.67.2.97.36.39.2.76.48.76.83.18-.08.29-.27.27-.47-.01-.2-.09-.38-.21-.53.1-.02.62-.49.62-.69"/>
      <path id="Path_57" data-name="Path 57" class="cls-1" d="M6.04,30.04c0-.19-.36-.55-.62-.69.13-.15.2-.34.21-.54,0-.19-.1-.37-.27-.45-.11.38-.39.69-.75.85-.32.15-.65.26-1,.31-.03-.03-.06-.06-.09-.09.08-.34.2-.67.36-.99.2-.39.48-.76.82-.76-.08-.18-.27-.29-.46-.27-.19.01-.38.09-.53.21-.02-.1-.49-.62-.69-.62s-.54.36-.69.62c-.15-.13-.34-.2-.54-.21-.19,0-.36.1-.45.27.38.11.69.39.84.75.15.32.26.66.31,1.01-.03.03-.06.06-.09.09-.34-.08-.67-.2-.98-.36-.39-.2-.76-.48-.76-.83-.18.08-.29.27-.27.47.01.2.08.38.21.53-.1.02-.62.49-.62.69s.36.55.62.69c-.13.15-.2.34-.21.54,0,.19.1.36.27.45.11-.38.39-.69.75-.85.32-.15.65-.26,1-.3.03.03.06.06.1.09-.08.34-.2.66-.36.96-.2.39-.48.76-.82.76.08.18.27.29.47.27.19-.01.38-.09.53-.21.02.1.49.62.69.62s.54-.36.68-.62c.15.13.34.2.54.21.19,0,.36-.1.45-.27-.38-.11-.69-.39-.85-.75-.15-.31-.25-.65-.3-.99.03-.03.06-.06.09-.09.34.08.67.2.97.36.39.2.76.48.76.83.18-.08.29-.27.27-.47-.01-.2-.09-.38-.21-.53.1-.02.62-.49.62-.69"/>
      <path id="Path_59" data-name="Path 59" class="cls-1" d="M46.04,30.04c0-.19-.36-.55-.62-.69.13-.15.2-.34.21-.54,0-.19-.1-.37-.27-.45-.11.38-.39.69-.75.85-.32.15-.65.26-1,.31-.03-.03-.06-.06-.09-.09.08-.34.2-.67.36-.99.2-.39.48-.76.82-.76-.08-.18-.27-.29-.46-.27-.19.01-.38.09-.53.21-.02-.1-.49-.62-.69-.62s-.54.36-.69.62c-.15-.13-.34-.2-.54-.21-.19,0-.36.1-.45.27.38.11.69.39.84.75.15.32.26.66.31,1.01-.03.03-.06.06-.09.09-.34-.08-.67-.2-.98-.36-.39-.2-.76-.48-.76-.83-.18.08-.29.27-.27.47.01.2.08.38.21.53-.1.02-.62.49-.62.69s.36.55.62.69c-.13.15-.2.34-.21.54,0,.19.1.36.27.45.11-.38.39-.69.75-.85.32-.15.65-.26,1-.3.03.03.06.06.1.09-.08.34-.2.66-.36.96-.2.39-.48.76-.82.76.08.18.27.29.47.27.19-.01.38-.09.53-.21.02.1.49.62.69.62s.54-.36.68-.62c.15.13.34.2.54.21.19,0,.36-.1.45-.27-.38-.11-.69-.39-.85-.75-.15-.31-.25-.65-.3-.99.03-.03.06-.06.09-.09.34.08.67.2.97.36.39.2.76.48.76.83.18-.08.29-.27.27-.47-.01-.2-.09-.38-.21-.53.1-.02.62-.49.62-.69"/>
      <path id="Path_58" data-name="Path 58" class="cls-1" d="M6.04,3.04c0-.19-.36-.55-.62-.69.13-.15.2-.34.21-.54,0-.19-.1-.37-.27-.45-.11.38-.39.69-.75.85-.32.15-.65.26-1,.31-.03-.03-.06-.06-.09-.09.08-.34.2-.67.36-.99.2-.39.48-.76.82-.76-.08-.18-.27-.29-.46-.27-.19.01-.38.09-.53.21-.02-.1-.49-.62-.69-.62s-.54.36-.69.62c-.15-.13-.34-.2-.54-.21-.19,0-.36.1-.45.27.38.11.69.39.84.75.15.32.26.66.31,1.01-.03.03-.06.06-.09.09-.34-.08-.67-.2-.98-.36-.39-.2-.76-.48-.76-.83-.18.08-.29.27-.27.47.01.2.08.38.21.53-.1.02-.62.49-.62.69s.36.55.62.69c-.13.15-.2.34-.21.54,0,.19.1.36.27.45.11-.38.39-.69.75-.85.32-.15.65-.26,1-.3.03.03.06.06.1.09-.08.34-.2.66-.36.96-.2.39-.48.76-.82.76.08.18.27.29.47.27.19-.01.38-.09.53-.21.02.1.49.62.69.62s.54-.36.68-.62c.15.13.34.2.54.21.19,0,.36-.1.45-.27-.38-.11-.69-.39-.85-.75-.15-.31-.25-.65-.3-.99.03-.03.06-.06.09-.09.34.08.67.2.97.36.39.2.76.48.76.83.18-.08.29-.27.27-.47-.01-.2-.09-.38-.21-.53.1-.02.62-.49.62-.69"/>
      <path id="Path_61" data-name="Path 61" class="cls-1" d="M6.04,12.04c0-.19-.36-.55-.62-.69.13-.15.2-.34.21-.54,0-.19-.1-.37-.27-.45-.11.38-.39.69-.75.85-.32.15-.65.26-1,.31-.03-.03-.06-.06-.09-.09.08-.34.2-.67.36-.99.2-.39.48-.76.82-.76-.08-.18-.27-.29-.46-.27-.19.01-.38.09-.53.21-.02-.1-.49-.62-.69-.62s-.54.36-.69.62c-.15-.13-.34-.2-.54-.21-.19,0-.36.1-.45.27.38.11.69.39.84.75.15.32.26.66.31,1.01-.03.03-.06.06-.09.09-.34-.08-.67-.2-.98-.36-.39-.2-.76-.48-.76-.83-.18.08-.29.27-.27.47.01.2.08.38.21.53-.1.02-.62.49-.62.69s.36.55.62.69c-.13.15-.2.34-.21.54,0,.19.1.36.27.45.11-.38.39-.69.75-.85.32-.15.65-.26,1-.3.03.03.06.06.1.09-.08.34-.2.66-.36.96-.2.39-.48.76-.82.76.08.18.27.29.47.27.19-.01.38-.09.53-.21.02.1.49.62.69.62s.54-.36.68-.62c.15.13.34.2.54.21.19,0,.36-.1.45-.27-.38-.11-.69-.39-.85-.75-.15-.31-.25-.65-.3-.99.03-.03.06-.06.09-.09.34.08.67.2.97.36.39.2.76.48.76.83.18-.08.29-.27.27-.47-.01-.2-.09-.38-.21-.53.1-.02.62-.49.62-.69"/>
      <path id="Path_66" data-name="Path 66" class="cls-1" d="M46.04,12.04c0-.19-.36-.55-.62-.69.13-.15.2-.34.21-.54,0-.19-.1-.37-.27-.45-.11.38-.39.69-.75.85-.32.15-.65.26-1,.31-.03-.03-.06-.06-.09-.09.08-.34.2-.67.36-.99.2-.39.48-.76.82-.76-.08-.18-.27-.29-.46-.27-.19.01-.38.09-.53.21-.02-.1-.49-.62-.69-.62s-.54.36-.69.62c-.15-.13-.34-.2-.54-.21-.19,0-.36.1-.45.27.38.11.69.39.84.75.15.32.26.66.31,1.01-.03.03-.06.06-.09.09-.34-.08-.67-.2-.98-.36-.39-.2-.76-.48-.76-.83-.18.08-.29.27-.27.47.01.2.08.38.21.53-.1.02-.62.49-.62.69s.36.55.62.69c-.13.15-.2.34-.21.54,0,.19.1.36.27.45.11-.38.39-.69.75-.85.32-.15.65-.26,1-.3.03.03.06.06.1.09-.08.34-.2.66-.36.96-.2.39-.48.76-.82.76.08.18.27.29.47.27.19-.01.38-.09.53-.21.02.1.49.62.69.62s.54-.36.68-.62c.15.13.34.2.54.21.19,0,.36-.1.45-.27-.38-.11-.69-.39-.85-.75-.15-.31-.25-.65-.3-.99.03-.03.06-.06.09-.09.34.08.67.2.97.36.39.2.76.48.76.83.18-.08.29-.27.27-.47-.01-.2-.09-.38-.21-.53.1-.02.62-.49.62-.69"/>
      <path id="Path_63" data-name="Path 63" class="cls-1" d="M6.04,21.04c0-.19-.36-.55-.62-.69.13-.15.2-.34.21-.54,0-.19-.1-.37-.27-.45-.11.38-.39.69-.75.85-.32.15-.65.26-1,.31-.03-.03-.06-.06-.09-.09.08-.34.2-.67.36-.99.2-.39.48-.76.82-.76-.08-.18-.27-.29-.46-.27-.19.01-.38.09-.53.21-.02-.1-.49-.62-.69-.62s-.54.36-.69.62c-.15-.13-.34-.2-.54-.21-.19,0-.36.1-.45.27.38.11.69.39.84.75.15.32.26.66.31,1.01-.03.03-.06.06-.09.09-.34-.08-.67-.2-.98-.36-.39-.2-.76-.48-.76-.83-.18.08-.29.27-.27.47.01.2.08.38.21.53-.1.02-.62.49-.62.69s.36.55.62.69c-.13.15-.2.34-.21.54,0,.19.1.36.27.45.11-.38.39-.69.75-.85.32-.15.65-.26,1-.3.03.03.06.06.1.09-.08.34-.2.66-.36.96-.2.39-.48.76-.82.76.08.18.27.29.47.27.19-.01.38-.09.53-.21.02.1.49.62.69.62s.54-.36.68-.62c.15.13.34.2.54.21.19,0,.36-.1.45-.27-.38-.11-.69-.39-.85-.75-.15-.31-.25-.65-.3-.99.03-.03.06-.06.09-.09.34.08.67.2.97.36.39.2.76.48.76.83.18-.08.29-.27.27-.47-.01-.2-.09-.38-.21-.53.1-.02.62-.49.62-.69"/>
      <path id="Path_64" data-name="Path 64" class="cls-1" d="M46.04,21.04c0-.19-.36-.55-.62-.69.13-.15.2-.34.21-.54,0-.19-.1-.37-.27-.45-.11.38-.39.69-.75.85-.32.15-.65.26-1,.31-.03-.03-.06-.06-.09-.09.08-.34.2-.67.36-.99.2-.39.48-.76.82-.76-.08-.18-.27-.29-.46-.27-.19.01-.38.09-.53.21-.02-.1-.49-.62-.69-.62s-.54.36-.69.62c-.15-.13-.34-.2-.54-.21-.19,0-.36.1-.45.27.38.11.69.39.84.75.15.32.26.66.31,1.01-.03.03-.06.06-.09.09-.34-.08-.67-.2-.98-.36-.39-.2-.76-.48-.76-.83-.18.08-.29.27-.27.47.01.2.08.38.21.53-.1.02-.62.49-.62.69s.36.55.62.69c-.13.15-.2.34-.21.54,0,.19.1.36.27.45.11-.38.39-.69.75-.85.32-.15.65-.26,1-.3.03.03.06.06.1.09-.08.34-.2.66-.36.96-.2.39-.48.76-.82.76.08.18.27.29.47.27.19-.01.38-.09.53-.21.02.1.49.62.69.62s.54-.36.68-.62c.15.13.34.2.54.21.19,0,.36-.1.45-.27-.38-.11-.69-.39-.85-.75-.15-.31-.25-.65-.3-.99.03-.03.06-.06.09-.09.34.08.67.2.97.36.39.2.76.48.76.83.18-.08.29-.27.27-.47-.01-.2-.09-.38-.21-.53.1-.02.62-.49.62-.69"/>
      <path id="Path_60" data-name="Path 60" class="cls-1" d="M46.04,3.04c0-.19-.36-.55-.62-.69.13-.15.2-.34.21-.54,0-.19-.1-.37-.27-.45-.11.38-.39.69-.75.85-.32.15-.65.26-1,.31-.03-.03-.06-.06-.09-.09.08-.34.2-.67.36-.99.2-.39.48-.76.82-.76-.08-.18-.27-.29-.46-.27-.19.01-.38.09-.53.21-.02-.1-.49-.62-.69-.62s-.54.36-.69.62c-.15-.13-.34-.2-.54-.21-.19,0-.36.1-.45.27.38.11.69.39.84.75.15.32.26.66.31,1.01-.03.03-.06.06-.09.09-.34-.08-.67-.2-.98-.36-.39-.2-.76-.48-.76-.83-.18.08-.29.27-.27.47.01.2.08.38.21.53-.1.02-.62.49-.62.69s.36.55.62.69c-.13.15-.2.34-.21.54,0,.19.1.36.27.45.11-.38.39-.69.75-.85.32-.15.65-.26,1-.3.03.03.06.06.1.09-.08.34-.2.66-.36.96-.2.39-.48.76-.82.76.08.18.27.29.47.27.19-.01.38-.09.53-.21.02.1.49.62.69.62s.54-.36.68-.62c.15.13.34.2.54.21.19,0,.36-.1.45-.27-.38-.11-.69-.39-.85-.75-.15-.31-.25-.65-.3-.99.03-.03.06-.06.09-.09.34.08.67.2.97.36.39.2.76.48.76.83.18-.08.29-.27.27-.47-.01-.2-.09-.38-.21-.53.1-.02.62-.49.62-.69"/>
    </g>
  </g>
</svg>